<?xml version="1.0" encoding="UTF-8"?>
<svg xmlns="http://www.w3.org/2000/svg" xmlns:xlink="http://www.w3.org/1999/xlink" width="48pt" height="48pt" viewBox="0 0 48 48" version="1.1">
<g id="surface1974886">
<path style=" stroke:none;fill-rule:nonzero;fill:rgb(100%,100%,100%);fill-opacity:1;" d="M 0.5 38.5 C 0.5 38.5 9 21 27 18 C 34 27 43 37 43 37 C 43 37 47.5 36.5 47.5 39.5 C 44.5 39.5 42.5 39.5 42.5 39.5 C 15.5 25.5 5.394531 30.320312 5.5 38.5 Z M 0.5 38.5 "/>
<path style=" stroke:none;fill-rule:nonzero;fill:rgb(7.450981%,38.431373%,88.627452%);fill-opacity:1;" d="M 48 40 L 42.378906 40 L 42.269531 39.945312 C 20.933594 28.878906 12.304688 30.585938 9.058594 32.589844 C 7.023438 33.84375 5.96875 35.882812 6 38.492188 L 6.007812 39 L -0.300781 39 L 0.0507812 38.28125 C 0.136719 38.105469 8.871094 20.515625 26.917969 17.507812 L 27.210938 17.457031 L 27.394531 17.691406 C 33.789062 25.910156 41.953125 35.078125 43.207031 36.480469 C 43.933594 36.4375 45.964844 36.425781 47.136719 37.476562 C 47.710938 37.988281 48 38.671875 48 39.5 Z M 42.621094 39 L 46.941406 39 C 46.863281 38.691406 46.707031 38.4375 46.46875 38.222656 C 45.390625 37.257812 43.078125 37.496094 43.054688 37.496094 L 42.800781 37.523438 L 42.628906 37.335938 C 42.539062 37.234375 33.695312 27.394531 26.789062 18.542969 C 11.515625 21.242188 3.160156 34.722656 1.332031 38 L 5.007812 38 C 5.105469 35.261719 6.320312 33.101562 8.53125 31.734375 C 14.433594 28.097656 26.539062 30.675781 42.621094 39 Z M 42.621094 39 "/>
<path style=" stroke:none;fill-rule:nonzero;fill:rgb(7.450981%,38.431373%,88.627452%);fill-opacity:1;" d="M 22 37 L 17.335938 37 L 17.203125 36.902344 C 16.578125 36.445312 1.910156 25.558594 6.054688 17.277344 C 7.898438 13.585938 11.402344 13.8125 13.5 13.953125 C 13.867188 13.976562 14.207031 14 14.5 14 L 14.5 15 C 14.1875 15 13.828125 14.976562 13.433594 14.949219 C 11.351562 14.8125 8.496094 14.625 6.945312 17.722656 C 3.371094 24.871094 16.226562 34.90625 17.667969 36 L 20.929688 36 C 20.851562 35.753906 20.703125 35.558594 20.488281 35.410156 C 19.917969 35.019531 18.953125 35.023438 18.347656 35.257812 L 17.984375 35.398438 L 17.757812 35.082031 C 14.800781 30.90625 16.945312 25.539062 17.035156 25.3125 L 17.964844 25.691406 C 17.941406 25.738281 16.042969 30.519531 18.375 34.207031 C 19.210938 34.003906 20.296875 34.066406 21.054688 34.585938 C 21.484375 34.882812 22 35.453125 22 36.5 Z M 22 37 "/>
<path style=" stroke:none;fill-rule:nonzero;fill:rgb(100%,100%,100%);fill-opacity:1;" d="M 43.5 6.5 C 41.292969 8.082031 39.5 9.5 39.5 11.5 C 37.875 10.875 36.65625 10.65625 34.59375 10.640625 C 32.34375 10.625 31.125 10.875 29.5 11.5 C 29.5 9.5 27.875 8.125 25.5 6.5 C 22.5 24.5 34.5 29.5 34.5 29.5 C 34.5 29.5 46.5 24.5 43.5 6.5 Z M 43.5 6.5 "/>
<path style=" stroke:none;fill-rule:nonzero;fill:rgb(7.450981%,38.431373%,88.627452%);fill-opacity:1;" d="M 34.5 30.042969 L 34.308594 29.960938 C 34.183594 29.910156 21.976562 24.597656 25.007812 6.417969 L 25.136719 5.644531 L 25.78125 6.085938 C 27.777344 7.453125 29.589844 8.847656 29.9375 10.808594 C 31.433594 10.292969 32.640625 10.109375 34.597656 10.140625 C 36.441406 10.15625 37.652344 10.328125 39.0625 10.808594 C 39.398438 8.964844 41.082031 7.621094 43.207031 6.09375 L 43.859375 5.625 L 43.992188 6.417969 C 47.023438 24.597656 34.816406 29.910156 34.691406 29.960938 Z M 25.871094 7.367188 C 23.582031 23.089844 32.96875 28.222656 34.5 28.949219 C 36.03125 28.222656 45.410156 23.09375 43.132812 7.386719 C 41.316406 8.726562 40 9.945312 40 11.5 L 40 12.226562 L 39.320312 11.96875 C 37.734375 11.355469 36.585938 11.15625 34.589844 11.140625 C 32.324219 11.109375 31.140625 11.40625 29.679688 11.96875 L 29 12.226562 L 29 11.5 C 29 9.976562 27.90625 8.820312 25.871094 7.367188 Z M 25.871094 7.367188 "/>
<path style=" stroke:none;fill-rule:nonzero;fill:rgb(7.450981%,38.431373%,88.627452%);fill-opacity:1;" d="M 21 16 C 17 18 13.3125 17.519531 14.042969 14.625 C 14.75 11.75 19 14 21 16 Z M 21 16 "/>
<path style=" stroke:none;fill-rule:nonzero;fill:rgb(7.450981%,38.431373%,88.627452%);fill-opacity:1;" d="M 15 26 L 14 23 L 12.6875 24.40625 Z M 15 26 "/>
<path style=" stroke:none;fill-rule:nonzero;fill:rgb(7.450981%,38.431373%,88.627452%);fill-opacity:1;" d="M 15.375 22.375 L 19 24 L 17.5 21.34375 Z M 15.375 22.375 "/>
<path style=" stroke:none;fill-rule:nonzero;fill:rgb(7.450981%,38.431373%,88.627452%);fill-opacity:1;" d="M 18 21 L 23 24 L 21.34375 19.53125 Z M 18 21 "/>
<path style=" stroke:none;fill-rule:nonzero;fill:rgb(7.450981%,38.431373%,88.627452%);fill-opacity:1;" d="M 36.71875 29.875 L 35 32 L 38 31 Z M 36.71875 29.875 "/>
<path style=" stroke:none;fill-rule:nonzero;fill:rgb(7.450981%,38.431373%,88.627452%);fill-opacity:1;" d="M 38 32 L 36 34 L 39 33 Z M 38 32 "/>
<path style=" stroke:none;fill-rule:nonzero;fill:rgb(7.450981%,38.431373%,88.627452%);fill-opacity:1;" d="M 25.375 15.84375 L 28 17 L 25.625 17.375 Z M 25.375 15.84375 "/>
<path style=" stroke:none;fill-rule:nonzero;fill:rgb(7.450981%,38.431373%,88.627452%);fill-opacity:1;" d="M 25.9375 18.59375 L 27.90625 19.09375 L 26.1875 19.6875 Z M 25.9375 18.59375 "/>
<path style=" stroke:none;fill-rule:nonzero;fill:rgb(7.450981%,38.431373%,88.627452%);fill-opacity:1;" d="M 44 15.84375 L 41 17 L 43.75 17.375 Z M 44 15.84375 "/>
<path style=" stroke:none;fill-rule:nonzero;fill:rgb(7.450981%,38.431373%,88.627452%);fill-opacity:1;" d="M 43.4375 18.59375 L 41 19 L 43.1875 19.6875 Z M 43.4375 18.59375 "/>
<path style=" stroke:none;fill-rule:nonzero;fill:rgb(7.450981%,38.431373%,88.627452%);fill-opacity:1;" d="M 28.375 12.5 C 28.375 12.5 26.21875 11.75 25.6875 6.75 C 26.625 7.46875 29.890625 10.203125 29.859375 11.890625 C 28.734375 12.328125 28.375 12.5 28.375 12.5 Z M 28.375 12.5 "/>
<path style=" stroke:none;fill-rule:nonzero;fill:rgb(7.450981%,38.431373%,88.627452%);fill-opacity:1;" d="M 40.636719 12.5 C 40.636719 12.5 42.792969 11.75 43.324219 6.75 C 42.386719 7.46875 39.121094 10.203125 39.152344 11.890625 C 40.277344 12.328125 40.636719 12.5 40.636719 12.5 Z M 40.636719 12.5 "/>
<path style=" stroke:none;fill-rule:nonzero;fill:rgb(7.450981%,38.431373%,88.627452%);fill-opacity:1;" d="M 11.4375 30.96875 C 11.4375 30.96875 14.375 30.125 16.6875 30.59375 C 16.9375 32.15625 17.0625 33.84375 18.40625 34.875 C 19.46875 34.65625 21.28125 34.375 21.625 36.46875 C 20.3125 36.4375 17.71875 36.53125 17.71875 36.53125 C 17.71875 36.53125 13 33.34375 11.4375 30.96875 Z M 11.4375 30.96875 "/>
<path style=" stroke:none;fill-rule:nonzero;fill:rgb(7.450981%,38.431373%,88.627452%);fill-opacity:1;" d="M 31.8125 20.855469 L 31.375 20.617188 C 32.285156 18.941406 32.746094 17.429688 32.746094 16.125 C 32.746094 15.128906 32.46875 14.519531 31.921875 14.320312 C 31.058594 14.007812 29.75 14.75 29.191406 15.417969 L 28.808594 15.097656 C 29.460938 14.316406 30.964844 13.441406 32.089844 13.851562 C 32.617188 14.042969 33.246094 14.59375 33.246094 16.125 C 33.246094 17.515625 32.765625 19.105469 31.8125 20.855469 Z M 31.8125 20.855469 "/>
<path style=" stroke:none;fill-rule:nonzero;fill:rgb(7.450981%,38.431373%,88.627452%);fill-opacity:1;" d="M 30.5 17.25 L 39.5 17.25 L 39.5 17.75 L 30.5 17.75 Z M 30.5 17.25 "/>
<path style=" stroke:none;fill-rule:nonzero;fill:rgb(7.450981%,38.431373%,88.627452%);fill-opacity:1;" d="M 25 21.25 L 30 21.25 L 30 21.75 L 25 21.75 Z M 25 21.25 "/>
<path style=" stroke:none;fill-rule:nonzero;fill:rgb(7.450981%,38.431373%,88.627452%);fill-opacity:1;" d="M 25 23.25 L 30 23.25 L 30 23.75 L 25 23.75 Z M 25 23.25 "/>
<path style=" stroke:none;fill-rule:nonzero;fill:rgb(7.450981%,38.431373%,88.627452%);fill-opacity:1;" d="M 39 21.25 L 44 21.25 L 44 21.75 L 39 21.75 Z M 39 21.25 "/>
<path style=" stroke:none;fill-rule:nonzero;fill:rgb(7.450981%,38.431373%,88.627452%);fill-opacity:1;" d="M 39 23.25 L 44 23.25 L 44 23.75 L 39 23.75 Z M 39 23.25 "/>
<path style=" stroke:none;fill-rule:nonzero;fill:rgb(7.450981%,38.431373%,88.627452%);fill-opacity:1;" d="M 31.605469 20.8125 L 31.601562 20.3125 L 37.496094 20.25 L 37.503906 20.75 Z M 31.605469 20.8125 "/>
<path style=" stroke:none;fill-rule:nonzero;fill:rgb(7.450981%,38.431373%,88.627452%);fill-opacity:1;" d="M 37.140625 20.773438 C 37.101562 20.667969 36.222656 18.175781 37.359375 16.554688 C 37.964844 15.6875 39.023438 15.25 40.5 15.25 L 40.5 15.75 C 39.195312 15.75 38.277344 16.117188 37.769531 16.84375 C 36.78125 18.25 37.601562 20.578125 37.613281 20.601562 Z M 37.140625 20.773438 "/>
<path style=" stroke:none;fill-rule:nonzero;fill:rgb(7.450981%,38.431373%,88.627452%);fill-opacity:1;" d="M 31.34375 20.695312 L 31.65625 20.304688 L 36.65625 24.304688 L 36.34375 24.691406 Z M 31.34375 20.695312 "/>
<path style=" stroke:none;fill-rule:nonzero;fill:rgb(7.450981%,38.431373%,88.627452%);fill-opacity:1;" d="M 32.34375 24.304688 L 37.34375 20.304688 L 37.65625 20.695312 L 32.65625 24.695312 Z M 32.34375 24.304688 "/>
<path style=" stroke:none;fill-rule:nonzero;fill:rgb(7.450981%,38.431373%,88.627452%);fill-opacity:1;" d="M 33 11 L 35 15 L 36 11 Z M 33 11 "/>
</g>
</svg>
