<?xml version="1.0" encoding="UTF-8"?>
<svg width="180px" height="180px" viewBox="0 0 180 180" version="1.1" xmlns="http://www.w3.org/2000/svg" xmlns:xlink="http://www.w3.org/1999/xlink">
    <!-- Generator: Sketch 51.3 (57544) - http://www.bohemiancoding.com/sketch -->
    <title>logo-bear</title>
    <desc>Created with Sketch.</desc>
    <defs>
        <polyline id="path-1" points="0 0.290443871 109.552019 0.290443871 109.552019 134.608184 0 134.608184"></polyline>
    </defs>
    <g id="logo-bear" stroke="none" stroke-width="1" fill="none" fill-rule="evenodd">
        <g id="logo" transform="translate(34.000000, 22.000000)">
            <g id="bearpot">
                <g id="Mascot_EPS" transform="translate(1.202511, 0.583338)">
                    <g id="Group-3">
                        <mask id="mask-2" fill="white">
                            <use xlink:href="#path-1"></use>
                        </mask>
                        <g id="Clip-2"></g>
                        <path d="M109.449784,76.6335013 C108.804733,67.554767 106.663778,58.8883913 103.291,50.8394126 C102.397853,48.707209 101.448427,46.6036913 100.385109,44.5640647 C104.152844,42.3793791 106.687089,38.3711885 106.687089,33.7739608 C106.687089,26.8453587 100.949237,21.2288066 93.8709984,21.2288066 L15.6923436,21.2288066 C8.6141049,21.2288066 2.87658554,26.8453587 2.87658554,33.7739608 C2.87658554,38.3676028 5.40650222,42.3731856 9.16957429,44.5588491 C8.10625667,46.5978237 7.15716327,48.7006895 6.26401643,50.8322411 C2.88990615,58.8828497 0.747619186,67.5515073 0.10256869,76.6325234 C0.0532824364,77.7128051 0,78.7924348 0,79.8847776 C0,87.7326297 1.30408763,95.2779768 3.67815319,102.347726 C4.38614356,104.337805 5.74750982,107.764781 7.41558309,110.053127 C7.59774242,110.288155 7.76957828,110.517316 7.97704676,110.764079 C8.00202291,110.792765 8.026,110.82471 8.05064313,110.852744 C8.79060297,111.723424 9.68741297,112.655387 10.7667153,113.579852 C11.8560081,114.505296 13.1174698,115.430087 14.5534315,116.203626 C15.9724094,116.972602 17.6284941,117.594237 19.2625998,117.800253 C20.9723,118.040171 22.7765765,117.752986 24.1539275,116.807006 C25.5579197,115.883845 26.5616276,114.268964 27.1427391,112.442851 C28.3019652,108.743359 28.1734213,104.55197 27.818427,100.760879 C27.4304643,96.9388202 26.7228069,93.3869949 26.0201448,90.3691168 C24.5945066,84.328471 23.1951766,80.4063379 23.1951766,80.4063379 C23.1951766,80.4063379 24.8665801,84.2195953 26.7261371,90.1852668 C27.6455921,93.1695694 28.6120023,96.6936869 29.2846931,100.569858 C29.9060995,104.438857 30.4072874,108.700656 29.3945881,113.056988 C28.8744183,115.197015 27.7901208,117.454719 25.8160065,118.980283 C23.8398941,120.531599 21.3692541,121.011434 19.1503737,121.064242 C16.8146049,121.079889 14.7409191,120.558329 12.860049,119.857156 C12.6309346,119.770447 12.4354546,119.658963 12.2130005,119.567038 C15.6520487,124.643449 19.74747,129.246871 24.3520715,133.311129 C26.8087249,134.632958 30.8112349,135.60958 36.1128373,132.915069 C45.356674,128.216789 54.6008437,127.694577 54.6008437,127.694577 C54.6008437,127.694577 63.8446804,128.216789 73.0888501,132.915069 C79.3002501,136.071813 83.7286866,134.192566 85.9728763,132.61941 C90.2481258,128.73509 94.0714736,124.383647 97.3107127,119.609415 C97.1029112,119.69482 96.9214179,119.799133 96.7082882,119.879648 C94.8274182,120.580821 92.7537323,121.102707 90.4179635,121.086734 C88.1990831,121.033926 85.7284431,120.554091 83.7523307,119.002775 C81.7782165,117.477211 80.6942519,115.219833 80.1740821,113.07948 C79.1613828,108.723148 79.6622377,104.461349 80.2839771,100.592676 C80.9563349,96.7165052 81.9227451,93.1923877 82.8422001,90.2077591 C84.7020902,84.2420876 86.3731606,80.4288301 86.3731606,80.4288301 C86.3731606,80.4288301 84.9741636,84.3509633 83.5481924,90.3916091 C82.8458633,93.4094871 82.1382059,96.9613125 81.7499102,100.783371 C81.3952489,104.574462 81.2667051,108.766177 82.4255981,112.465343 C83.0067096,114.291456 84.0104175,115.906663 85.4144097,116.829499 C86.7920937,117.775805 88.5960372,118.062663 90.3060704,117.822745 C91.9398431,117.616729 93.5959278,116.99542 95.0152387,116.226119 C96.4512004,115.45258 97.7126621,114.527788 98.8016219,113.602345 C100.267888,112.346362 101.377495,111.08875 102.230014,109.978479 C103.559743,108.127266 104.689664,105.569339 105.44461,103.611532 C108.098075,96.1822319 109.552019,88.201382 109.552019,79.8847776 C109.552019,78.7927608 109.49907,77.713457 109.449784,76.6335013" id="Fill-1" fill="#F6C724" mask="url(#mask-2)"></path>
                    </g>
                    <path d="M43.2839872,42.73567 C43.2839872,49.0579583 38.0479888,54.1835918 31.5888255,54.1835918 C25.1299951,54.1835918 19.8936637,49.0579583 19.8936637,42.73567 C19.8936637,36.4130557 25.1299951,31.2874222 31.5888255,31.2874222 C38.0479888,31.2874222 43.2839872,36.4130557 43.2839872,42.73567" id="Fill-4" fill="#FFFFFE"></path>
                    <path d="M36.7935204,42.73567 C36.7935204,45.5491616 34.4634129,47.8300098 31.5888255,47.8300098 C28.714571,47.8300098 26.3844635,45.5491616 26.3844635,42.73567 C26.3844635,39.9218524 28.714571,37.6410041 31.5888255,37.6410041 C34.4634129,37.6410041 36.7935204,39.9218524 36.7935204,42.73567" id="Fill-5" fill="#26292D"></path>
                    <path d="M15.6923436,27.4803583 C12.1414022,27.4803583 9.26281856,30.2980876 9.26281856,33.7739608 C9.26281856,36.028405 10.4836524,37.9907755 12.3035806,39.1023508 C14.5284553,35.5254253 17.0114169,32.1206147 19.7424748,28.9231244 C18.6342001,28.035168 17.2362022,27.4803583 15.6923436,27.4803583" id="Fill-6" fill="#26292D"></path>
                    <path d="M93.8709984,27.4803583 C92.3238097,27.4803583 90.9238137,28.0371239 89.8145399,28.92834 C92.5449318,32.1255044 95.0268943,35.530315 97.251436,39.1065885 C99.0756934,37.9963171 100.300523,36.0316648 100.300523,33.7739608 C100.300523,30.2980876 97.4219398,27.4803583 93.8709984,27.4803583" id="Fill-7" fill="#26292D"></path>
                    <path d="M30.8645173,39.0453051 C30.8645173,40.5901014 29.5854058,41.8421721 28.0075797,41.8421721 C26.4294205,41.8421721 25.150309,40.5901014 25.150309,39.0453051 C25.150309,37.5008348 26.4294205,36.2487642 28.0075797,36.2487642 C29.5854058,36.2487642 30.8645173,37.5008348 30.8645173,39.0453051" id="Fill-8" fill="#FFFFFE"></path>
                    <path d="M89.6583558,42.73567 C89.6583558,49.0579583 84.4223574,54.1835918 77.963194,54.1835918 C71.5040306,54.1835918 66.2680322,49.0579583 66.2680322,42.73567 C66.2680322,36.4130557 71.5040306,31.2874222 77.963194,31.2874222 C84.4223574,31.2874222 89.6583558,36.4130557 89.6583558,42.73567" id="Fill-9" fill="#FFFFFE"></path>
                    <path d="M83.167556,42.73567 C83.167556,45.5491616 80.8374484,47.8300098 77.963194,47.8300098 C75.0886066,47.8300098 72.758499,45.5491616 72.758499,42.73567 C72.758499,39.9218524 75.0886066,37.6410041 77.963194,37.6410041 C80.8374484,37.6410041 83.167556,39.9218524 83.167556,42.73567" id="Fill-10" fill="#26292D"></path>
                    <path d="M77.2388859,39.0453051 C77.2388859,40.5901014 75.9594414,41.8421721 74.3816152,41.8421721 C72.8037891,41.8421721 71.5246776,40.5901014 71.5246776,39.0453051 C71.5246776,37.5008348 72.8037891,36.2487642 74.3816152,36.2487642 C75.9594414,36.2487642 77.2388859,37.5008348 77.2388859,39.0453051" id="Fill-11" fill="#FFFFFE"></path>
                    <path d="M70.5023208,64.8410238 C70.5023208,73.4373148 63.3831213,80.4063379 54.6008437,80.4063379 C45.8185661,80.4063379 38.6993666,73.4373148 38.6993666,64.8410238 C38.6993666,56.2444067 45.8185661,49.2753837 54.6008437,49.2753837 C63.3831213,49.2753837 70.5023208,56.2444067 70.5023208,64.8410238" id="Fill-12" fill="#FFFFFE"></path>
                    <path d="M53.5688295,80.3551598 C53.9115022,80.3770001 54.2518438,80.4063379 54.6001777,80.4063379 C54.9488446,80.4063379 55.2895192,80.3770001 55.6325249,80.3551598 L55.6325249,60.1241632 L53.5688295,60.1241632 L53.5688295,80.3551598" id="Fill-13" fill="#26292D"></path>
                    <path d="M62.850963,56.3418733 C62.850963,56.1267297 62.8093361,55.9233212 62.7500594,55.7270842 C62.7240842,55.6309215 62.7031042,55.5742018 62.7031042,55.5742018 L62.7014391,55.5742018 C62.6271767,55.3822024 62.5262731,55.2055239 62.4027245,55.0441662 L62.4033905,55.0422103 C62.4033905,55.0422103 61.4692828,53.157096 54.694754,53.1391673 L54.694754,53.1372115 C54.6784363,53.1372115 54.6644496,53.1381894 54.6477989,53.1381894 C54.6314811,53.1381894 54.6171615,53.1372115 54.6008437,53.1372115 L54.6008437,53.1391673 C50.6592755,53.1495985 48.6994809,53.7901397 47.7470573,54.3263689 C47.17194,54.5522697 46.7200384,55.0060271 46.5002483,55.5742018 L46.4969182,55.5742018 C46.4969182,55.5742018 46.472275,55.6407007 46.4436357,55.7525102 C46.3890212,55.9412498 46.3503915,56.136183 46.3503915,56.3418733 C46.3503915,56.3604539 46.3553867,56.3777306 46.3560527,56.3959852 C46.3157579,57.3739107 46.6434449,59.0960375 48.9089474,60.8628229 C51.1378184,62.6009224 52.8498497,63.1681192 53.7909507,63.3562069 C53.862549,63.3721797 53.9358123,63.3819589 54.0087426,63.393694 C54.3790556,63.4523696 54.5991786,63.4520436 54.5991786,63.4520436 L54.6008437,63.4520436 C54.6008437,63.4520436 54.8199677,63.4520436 55.1889486,63.39402 C55.263877,63.3819589 55.3391385,63.3721797 55.4127348,63.355555 C56.3545019,63.1668153 58.0652011,62.5983146 60.2910749,60.8628229 C62.5472531,59.1032089 62.8812674,57.3879276 62.8443027,56.4080463 C62.8449687,56.385554 62.850963,56.3646916 62.850963,56.3418733" id="Fill-14" fill="#26292D"></path>
                    <path d="M8.63142169,104.867188 C8.63142169,104.867188 7.78156683,103.785603 6.84579404,101.956556 C5.90435999,100.135985 4.94927231,97.5630627 4.33952143,94.9167963 C3.71944708,92.2708559 3.42439559,89.5711296 3.36478586,87.54389 C3.31117041,85.5140427 3.44071333,84.1589639 3.44071333,84.1589639 C3.44071333,84.1589639 3.54261599,84.486895 3.6828154,85.0615892 C3.81868562,85.6346535 4.01316651,86.4531771 4.24661018,87.4356663 C4.69451567,89.3967329 5.23366732,92.0016004 5.8477474,94.579412 C6.43218912,97.164721 7.11054114,99.7226481 7.67033974,101.64362 C7.95540077,102.607528 8.19284063,103.411057 8.35901523,103.973364 C8.54383868,104.536649 8.63142169,104.867188 8.63142169,104.867188" id="Fill-16" fill="#FFFFFE"></path>
                    <path d="M87.936001,88.5211636 C87.936001,88.5211636 87.9123569,89.4316122 87.7678283,90.7527896 C87.6153074,92.072663 87.3165927,93.7980495 86.9592674,95.5064854 C86.5872894,97.2123134 86.163028,98.9064063 85.7803935,100.177709 C85.6025633,100.814665 85.3900996,101.340463 85.2825357,101.715334 C85.1566559,102.087598 85.0630787,102.299482 85.0630787,102.299482 C85.0630787,102.299482 84.9125558,101.400116 84.9005672,100.055469 C84.895905,98.7127771 85.0757332,96.9352345 85.4450471,95.196809 C85.8200223,93.4590354 86.3778228,91.7646165 86.9123122,90.5321044 C87.454461,89.2999183 87.936001,88.5211636 87.936001,88.5211636" id="Fill-17" fill="#FFFFFE"></path>
                    <path d="M15.4878722,22.7520885 C15.4878722,22.7520885 14.5311195,23.1109872 13.2833114,23.8441053 C12.6545787,24.1990923 11.9545806,24.6463302 11.2542496,25.1747359 C10.5485904,25.6953183 9.85491963,26.3146711 9.21719547,26.9822682 C8.55982341,27.6358484 8.0083502,28.3774419 7.48018804,29.0779626 C7.00564135,29.8120586 6.54474827,30.5005182 6.20940194,31.1371477 C5.83209568,31.7538927 5.56901365,32.3034868 5.37553181,32.6887894 C5.1763887,33.0724622 5.04018547,33.2911915 5.04018547,33.2911915 C5.04018547,33.2911915 5.04251658,33.0431244 5.08514253,32.6095775 C5.15274462,32.1841799 5.14974748,31.5377711 5.38219211,30.8193219 C5.54470354,30.0767505 5.88437907,29.2536632 6.31097158,28.3921108 C6.77352973,27.5475092 7.37695332,26.7016036 8.091604,25.9437114 C9.54421643,24.4419438 11.438074,23.415774 12.9439689,23.0444882 C14.4505298,22.6419089 15.4878722,22.7520885 15.4878722,22.7520885" id="Fill-18" fill="#FFFFFE"></path>
                </g>
                <path d="M29.3227015,18.2469308 L81.3106198,18.2469308 C75.1379118,14.3187721 67.7306622,11.6577613 59.9118988,11.0241873 L63.0668384,3.04115513 C63.0668384,3.04115513 61.0092691,1.52057756 55.3852463,1.52057756 C49.7612234,1.52057756 47.7036541,3.04115513 47.7036541,3.04115513 L50.8585938,11.0241873 C42.7654877,11.6577613 35.4954094,14.3187721 29.3227015,18.2469308 Z" id="Shape" fill="#F6C724" fill-rule="nonzero"></path>
            </g>
        </g>
    </g>
</svg>