<?xml version="1.0" standalone="no"?>
<!DOCTYPE svg PUBLIC "-//W3C//DTD SVG 20010904//EN"
 "http://www.w3.org/TR/2001/REC-SVG-20010904/DTD/svg10.dtd">
<svg version="1.0" xmlns="http://www.w3.org/2000/svg"
 width="2272.000000pt" height="2272.000000pt" viewBox="0 0 2272.000000 2272.000000"
 preserveAspectRatio="xMidYMid meet">
<metadata>
Created by potrace 1.11, written by Peter Selinger 2001-2013
</metadata>
<g transform="translate(0.000000,2272.000000) scale(0.100000,-0.100000)"
fill="#000000" stroke="none">
<path d="M5702 15783 c21 -43 31 -69 56 -138 17 -44 33 -89 38 -100 4 -11 8
-22 9 -25 1 -3 6 -16 12 -30 6 -14 29 -72 51 -130 88 -232 124 -326 133 -345
4 -11 31 -81 59 -155 28 -74 56 -146 62 -160 6 -14 12 -29 14 -35 1 -5 12 -35
24 -65 12 -30 32 -82 45 -115 80 -214 106 -282 115 -300 5 -11 45 -114 89
-230 44 -115 87 -227 95 -247 9 -21 13 -38 10 -38 -4 0 -2 -6 4 -12 5 -7 24
-51 42 -98 17 -47 38 -98 45 -115 11 -25 25 -65 30 -85 1 -3 7 -18 14 -35 14
-34 43 -110 103 -265 22 -58 44 -114 48 -125 22 -51 100 -256 100 -261 0 -3 6
-20 14 -37 8 -18 32 -79 54 -137 22 -58 43 -114 47 -125 5 -11 9 -24 11 -30 3
-10 114 -295 129 -330 4 -11 9 -27 11 -35 2 -8 7 -23 12 -35 30 -62 52 -116
52 -125 0 -5 11 -34 25 -65 13 -30 24 -58 25 -60 1 -11 14 -46 56 -152 24 -62
44 -115 44 -118 0 -4 11 -31 25 -61 14 -30 25 -58 25 -62 0 -5 18 -55 41 -113
22 -57 46 -120 54 -139 29 -78 68 -176 76 -195 26 -66 99 -256 99 -261 0 -3 6
-20 14 -37 8 -18 28 -70 46 -117 17 -47 35 -94 40 -105 11 -24 49 -126 84
-220 15 -38 30 -79 35 -90 5 -11 18 -45 30 -75 11 -30 26 -68 32 -85 7 -16 13
-33 14 -37 2 -5 4 -10 5 -13 1 -3 3 -8 5 -12 2 -10 23 -62 34 -88 5 -11 14
-36 21 -55 7 -19 16 -44 20 -55 5 -11 24 -60 43 -110 19 -49 38 -99 42 -110 5
-11 9 -22 10 -25 9 -26 18 -48 26 -62 5 -10 9 -22 9 -27 0 -5 8 -26 17 -47 9
-22 17 -41 18 -44 0 -6 23 -67 36 -95 4 -11 23 -60 42 -110 19 -49 38 -99 42
-110 4 -11 9 -25 10 -31 2 -6 10 -27 18 -45 9 -19 34 -83 57 -144 139 -366
129 -340 154 -397 9 -20 16 -39 16 -42 0 -3 21 -59 46 -123 25 -65 54 -140 64
-168 11 -27 25 -63 31 -80 7 -16 13 -32 14 -35 1 -3 6 -16 12 -30 6 -14 19
-50 29 -80 11 -30 22 -57 27 -58 4 -2 7 -14 7 -26 0 -12 4 -26 9 -32 5 -5 20
-40 34 -79 14 -38 58 -153 97 -255 40 -102 72 -191 73 -197 0 -7 5 -13 10 -13
6 0 8 -3 4 -6 -3 -4 3 -24 13 -45 11 -21 20 -45 20 -53 0 -9 8 -19 18 -23 9
-5 233 -8 497 -7 407 0 480 3 481 15 0 8 -3 19 -7 24 -3 6 -30 72 -58 148 -29
76 -57 150 -63 165 -6 15 -14 37 -19 50 -5 12 -13 32 -18 45 -18 44 -36 92
-36 97 -1 3 -9 23 -19 45 -10 22 -19 47 -21 55 -3 13 -65 175 -90 235 -5 11
-9 22 -10 25 -11 33 -35 91 -46 112 -5 10 -9 25 -9 33 0 8 -5 23 -10 33 -21
36 -149 376 -144 384 3 4 1 8 -3 8 -5 0 -17 26 -28 58 -10 31 -22 62 -25 67
-4 6 -22 51 -40 100 -19 50 -37 95 -41 101 -5 6 -10 19 -12 30 -4 19 -14 47
-42 114 -8 19 -37 96 -65 170 -28 74 -58 149 -66 167 -8 17 -14 35 -14 40 0 7
-15 47 -63 163 -5 14 -13 34 -17 45 -5 11 -23 58 -41 105 -19 47 -34 87 -34
90 0 5 -8 25 -40 105 -7 17 -22 57 -35 90 -12 33 -28 74 -35 90 -7 17 -25 64
-40 105 -15 41 -33 89 -40 105 -8 17 -26 64 -40 105 -15 41 -35 94 -46 117
-10 24 -19 49 -19 56 0 7 -4 17 -9 22 -4 6 -21 46 -36 90 -16 44 -33 86 -38
93 -5 6 -6 12 -2 12 4 0 3 6 -2 13 -8 10 -44 97 -49 117 0 3 -4 14 -9 25 -4
11 -19 49 -32 85 -13 36 -28 74 -33 85 -5 11 -43 110 -85 220 -73 193 -96 252
-118 305 -5 14 -13 34 -17 45 -5 11 -14 36 -21 55 -8 19 -14 37 -14 40 0 3 -6
15 -13 28 -7 12 -10 22 -6 22 3 0 2 6 -3 13 -6 6 -16 30 -23 52 -7 22 -21 58
-30 80 -10 22 -32 78 -50 125 -34 93 -48 126 -61 152 -5 10 -9 26 -9 36 0 10
-4 22 -9 27 -5 6 -11 19 -13 30 -1 11 -6 22 -9 25 -3 3 -18 39 -33 80 -33 88
-73 192 -92 237 -8 17 -14 34 -14 37 0 3 -25 70 -55 148 -31 79 -69 179 -86
223 -17 44 -34 89 -39 100 -5 11 -21 52 -35 90 -15 39 -37 97 -50 130 -13 33
-42 110 -65 170 -22 61 -45 119 -50 130 -5 11 -19 47 -31 80 -12 33 -26 71
-32 85 -6 14 -11 27 -12 30 -2 6 -23 58 -32 80 -3 8 -7 20 -9 25 -6 26 -108
284 -125 317 -5 10 -9 24 -9 31 0 8 -6 27 -14 43 -7 16 -39 97 -71 179 -31 83
-60 159 -65 170 -5 11 -23 58 -40 105 -18 47 -38 99 -46 117 -8 17 -14 33 -14
36 0 2 -8 22 -17 43 -9 22 -17 44 -19 50 -1 6 -18 53 -39 105 -20 52 -50 130
-67 174 -16 44 -34 89 -38 100 -5 11 -28 70 -51 130 -23 61 -47 124 -54 140
-7 17 -28 72 -46 122 l-34 93 -498 0 c-274 0 -497 -3 -495 -7z"/>
<path d="M9166 15755 c8 -19 15 -38 15 -42 2 -13 10 -36 19 -58 5 -11 16 -40
24 -65 8 -25 34 -97 56 -160 23 -63 46 -127 50 -141 4 -15 15 -42 23 -60 19
-44 43 -123 39 -128 -2 -2 1 -7 6 -10 5 -3 19 -37 32 -76 12 -38 25 -74 29
-80 3 -5 6 -14 7 -20 3 -12 80 -231 93 -260 4 -11 13 -36 20 -55 26 -78 133
-376 141 -395 5 -11 15 -40 24 -65 17 -49 170 -478 202 -565 4 -11 8 -23 9
-27 2 -5 4 -11 5 -15 1 -5 2 -11 1 -15 0 -5 4 -8 11 -8 6 0 9 -3 5 -6 -6 -7
30 -111 46 -131 5 -7 7 -13 3 -13 -3 0 4 -24 15 -52 12 -29 22 -57 24 -63 1
-5 8 -23 14 -40 7 -16 14 -34 15 -40 1 -8 73 -210 94 -265 3 -8 6 -17 7 -20 1
-3 7 -18 13 -33 7 -16 12 -34 12 -41 0 -6 5 -17 12 -24 7 -7 8 -12 4 -12 -5 0
-1 -11 8 -25 9 -14 14 -25 11 -25 -2 0 5 -24 16 -52 12 -29 22 -60 24 -68 4
-13 147 -412 162 -450 3 -8 7 -19 8 -25 2 -5 14 -40 28 -77 15 -38 24 -68 20
-68 -3 0 -1 -6 5 -12 5 -7 20 -42 32 -78 13 -36 27 -76 33 -90 6 -14 11 -27
12 -30 0 -3 9 -30 20 -60 11 -30 20 -57 20 -60 1 -3 5 -12 8 -20 4 -8 29 -80
57 -160 27 -80 54 -153 60 -162 5 -10 10 -22 10 -27 0 -5 5 -22 12 -38 6 -15
12 -32 13 -38 0 -5 7 -23 14 -40 15 -35 50 -134 56 -155 2 -8 11 -33 19 -55 8
-22 29 -78 46 -125 17 -47 33 -89 34 -95 2 -5 6 -19 10 -30 5 -11 16 -42 26
-70 10 -27 30 -83 45 -123 15 -39 28 -78 29 -85 2 -6 6 -19 9 -27 4 -8 25 -67
47 -130 23 -63 50 -137 60 -165 38 -102 94 -260 96 -270 1 -5 28 -80 59 -165
32 -85 61 -166 65 -180 5 -14 22 -63 39 -110 18 -47 47 -130 66 -185 19 -55
39 -109 44 -120 5 -11 30 -78 55 -150 25 -71 57 -161 71 -200 15 -38 28 -74
29 -80 2 -5 8 -23 14 -38 7 -15 15 -40 18 -55 4 -15 11 -32 15 -38 5 -6 10
-19 12 -30 2 -10 7 -26 10 -34 3 -8 34 -94 68 -190 33 -96 64 -184 69 -195 4
-11 22 -60 40 -110 18 -49 37 -103 44 -120 6 -16 11 -32 12 -35 1 -6 13 -39
24 -65 5 -11 14 -38 21 -60 19 -64 37 -85 62 -76 12 5 32 5 45 0 12 -5 22 -5
22 -1 0 4 26 6 57 4 32 -1 65 -2 73 -2 48 1 105 -2 108 -5 2 -2 14 0 26 5 13
4 29 4 39 -1 9 -6 17 -6 17 -2 0 4 26 7 57 5 32 -1 65 -2 73 -2 48 1 105 -2
108 -5 2 -2 14 0 26 5 13 4 29 4 39 -1 9 -6 17 -6 17 -2 0 4 26 7 57 5 32 -1
65 -2 73 -2 48 1 105 -2 108 -5 2 -2 14 0 26 5 13 4 29 4 39 -1 9 -6 17 -6 17
-2 0 4 26 7 57 5 58 -3 73 -3 96 -1 6 1 37 1 67 0 83 -1 88 -1 98 12 5 7 17
37 27 67 10 30 20 60 24 65 3 6 6 15 7 20 1 6 16 48 34 95 17 47 33 90 34 95
5 24 29 91 36 100 3 6 19 48 35 95 15 47 32 96 38 110 6 14 11 30 13 35 3 10
56 155 67 185 3 8 13 38 23 65 10 28 22 56 27 63 5 6 7 12 4 12 -3 0 1 17 9
37 9 20 17 44 19 52 2 9 18 54 35 101 56 150 68 182 120 330 28 80 57 159 63
175 6 17 12 32 13 35 0 3 4 12 7 20 8 20 43 118 74 210 14 41 29 80 33 85 6 9
13 30 26 80 1 6 9 26 18 46 8 20 12 39 9 43 -4 3 -1 6 5 6 7 0 12 9 12 19 0
11 5 23 11 26 6 4 8 13 5 21 -3 8 -1 14 5 14 6 0 8 4 4 9 -3 5 -1 12 4 15 4 3
12 20 16 38 10 44 9 40 23 66 7 12 11 22 8 22 -2 0 11 38 29 85 19 47 31 85
28 85 -3 0 -1 6 4 13 5 6 22 48 37 92 15 44 30 87 34 95 3 8 6 17 7 20 1 3 4
12 8 20 3 8 20 56 37 105 18 50 50 137 72 195 21 58 41 112 43 121 2 8 11 33
20 55 9 21 16 39 15 39 -1 0 1 7 4 15 3 8 26 74 51 145 25 72 49 139 54 150 5
11 16 40 25 65 22 64 157 440 169 470 6 14 11 31 13 37 2 11 39 114 61 173 4
8 7 17 7 20 1 3 9 25 18 50 29 78 150 415 153 425 1 6 7 24 14 40 7 17 22 57
33 90 11 33 23 64 26 70 4 5 7 15 8 20 1 6 18 55 39 110 20 55 38 105 39 110
2 6 6 17 9 25 4 8 20 56 37 105 17 50 35 99 39 110 20 43 66 180 63 188 -1 4
2 7 6 7 5 0 9 6 9 13 2 16 46 138 58 157 5 8 10 21 10 30 2 15 66 199 90 255
12 28 36 98 41 120 2 6 17 46 34 90 17 44 32 87 34 95 1 8 9 29 15 45 7 17 14
35 15 40 2 6 6 17 9 25 4 8 22 60 42 115 19 55 38 107 42 115 10 23 10 23 18
58 4 17 11 32 16 32 5 0 8 3 7 8 -2 9 13 63 21 77 3 6 6 15 7 20 1 6 8 24 15
40 6 17 13 35 15 40 2 10 51 148 61 175 3 8 7 20 9 25 1 6 8 24 15 40 7 17 13
33 14 38 2 4 3 8 5 10 1 1 3 9 5 17 2 8 26 76 54 150 27 74 73 200 101 280 28
80 56 150 61 156 5 6 7 13 4 16 -3 3 2 21 10 41 8 20 15 39 15 42 0 3 -352 4
-781 3 l-782 -3 -18 -55 c-10 -30 -21 -64 -24 -75 -5 -22 -63 -200 -72 -225
-4 -8 -7 -17 -7 -20 -1 -3 -5 -11 -9 -17 -5 -7 -6 -13 -3 -13 3 0 -4 -26 -15
-57 -11 -32 -22 -62 -23 -68 -2 -5 -6 -17 -9 -25 -4 -8 -18 -53 -32 -100 -14
-47 -30 -94 -35 -105 -7 -18 -70 -213 -76 -240 -1 -5 -17 -50 -34 -100 -17
-49 -32 -94 -34 -100 -22 -81 -30 -102 -38 -112 -6 -7 -8 -13 -5 -13 3 0 -6
-33 -19 -72 -14 -40 -27 -77 -28 -83 -2 -12 -145 -454 -153 -475 -3 -8 -7 -19
-8 -25 -2 -5 -22 -67 -45 -137 -23 -69 -43 -132 -44 -140 -1 -7 -7 -22 -13
-33 -6 -11 -13 -33 -16 -50 -3 -16 -17 -61 -30 -100 -33 -93 -107 -316 -112
-337 -2 -9 -16 -54 -31 -100 -16 -46 -29 -85 -30 -88 0 -3 -3 -12 -6 -20 -9
-23 -73 -224 -74 -232 -1 -5 -3 -10 -4 -13 -1 -3 -3 -8 -5 -12 -1 -5 -4 -15
-8 -23 -3 -8 -22 -67 -42 -130 -20 -63 -41 -124 -46 -135 -5 -11 -11 -32 -13
-46 -1 -13 -6 -31 -11 -39 -5 -8 -10 -21 -11 -27 -2 -13 -60 -193 -72 -223 -3
-8 -7 -19 -7 -25 -1 -5 -5 -17 -8 -25 -4 -8 -34 -100 -67 -205 -34 -104 -76
-235 -95 -290 -18 -55 -61 -188 -95 -295 -34 -107 -66 -204 -70 -215 -5 -11
-26 -74 -46 -140 -20 -66 -41 -126 -47 -132 -5 -7 -7 -13 -3 -13 3 0 -1 -17
-8 -37 -8 -21 -56 -166 -106 -323 -129 -400 -169 -523 -177 -540 -3 -8 -7 -19
-8 -25 0 -5 -4 -17 -7 -25 -4 -8 -21 -62 -39 -120 -18 -58 -36 -109 -41 -115
-6 -7 -9 -7 -7 0 1 6 0 17 -4 25 -3 8 -29 89 -57 180 -29 91 -54 172 -57 180
-3 8 -7 20 -9 25 -1 6 -16 51 -33 100 -17 50 -31 98 -31 108 0 9 -4 17 -8 17
-5 0 -9 6 -9 13 0 6 -15 57 -33 112 -18 55 -33 105 -35 110 -1 6 -5 17 -8 25
-8 23 -49 149 -51 163 -2 7 -6 20 -10 29 -4 9 -9 22 -10 30 -2 7 -6 22 -10 33
-20 54 -26 72 -29 90 -1 11 -5 25 -9 30 -4 7 -63 186 -73 225 -1 3 -5 12 -8
20 -3 8 -27 82 -52 163 -25 81 -52 165 -61 185 -8 20 -14 37 -14 37 3 0 -13
61 -19 70 -3 6 -6 12 -6 15 -4 24 -19 77 -24 85 -4 6 -18 46 -30 90 -13 44
-27 89 -32 100 -14 34 -100 309 -105 335 -3 13 -9 29 -14 35 -5 6 -11 22 -14
35 -2 14 -13 50 -24 80 -11 30 -20 57 -20 60 -1 6 0 4 -42 135 -17 55 -34 107
-37 115 -3 8 -8 22 -10 30 -5 21 -9 33 -16 50 -9 22 -47 142 -52 165 -2 11
-16 54 -30 95 -14 41 -27 81 -28 90 -1 8 -5 20 -8 25 -4 6 -16 42 -28 80 -61
194 -124 392 -130 410 -15 39 -32 90 -36 105 -2 8 -4 15 -6 15 -1 0 -3 9 -4
20 -2 11 -12 44 -23 73 -11 29 -21 56 -21 60 -2 15 -43 138 -52 154 -5 10 -9
28 -9 41 0 13 -4 27 -10 33 -5 5 -11 21 -14 34 -2 14 -5 26 -7 28 -1 1 -2 5
-3 10 -1 4 -26 81 -55 170 -29 90 -54 169 -55 175 -1 7 -5 18 -9 24 -5 7 -10
23 -13 35 -6 28 -9 39 -17 58 -12 31 -69 211 -71 223 -1 7 -4 17 -8 22 -3 6
-9 25 -13 43 -4 18 -13 45 -21 60 -8 15 -14 32 -14 39 0 7 -12 47 -26 90 -14
43 -27 83 -28 88 -2 6 -6 17 -9 25 -8 21 -47 142 -51 160 -2 8 -20 64 -40 123
-20 60 -36 112 -36 117 0 5 -5 21 -12 37 -6 15 -12 33 -14 38 -4 17 -82 259
-89 278 -7 16 -53 17 -786 17 l-778 0 15 -35z"/>
<path d="M4574 13756 c-22 -12 -65 -32 -95 -45 -30 -13 -109 -50 -176 -82 -67
-31 -138 -63 -157 -70 -20 -7 -36 -17 -36 -21 0 -4 -6 -8 -13 -8 -7 0 -41 -14
-77 -32 -36 -18 -69 -33 -75 -34 -5 -1 -57 -24 -115 -52 -232 -110 -299 -140
-304 -134 -3 3 -6 0 -6 -6 0 -7 -9 -12 -20 -12 -11 0 -20 -4 -20 -10 0 -5 -5
-10 -12 -10 -6 0 -41 -14 -77 -31 -36 -17 -100 -47 -141 -66 -41 -19 -97 -45
-125 -58 -27 -13 -54 -24 -60 -25 -5 -1 -28 -13 -51 -26 -22 -13 -44 -21 -47
-17 -4 3 -7 1 -7 -5 0 -7 -3 -11 -7 -10 -5 0 -35 -12 -68 -28 -33 -15 -62 -29
-65 -29 -3 -1 -41 -19 -85 -39 -154 -73 -230 -109 -270 -126 -22 -10 -76 -35
-120 -56 -44 -21 -82 -38 -85 -39 -8 -3 -89 -40 -190 -87 -52 -25 -120 -56
-150 -70 -30 -14 -82 -38 -115 -54 -33 -15 -62 -28 -65 -29 -3 0 -27 -12 -55
-24 -27 -13 -88 -41 -135 -63 -47 -22 -110 -51 -140 -65 -30 -14 -101 -48
-158 -74 -56 -27 -105 -49 -107 -49 -2 0 -51 -22 -107 -49 -57 -27 -125 -59
-153 -71 -27 -12 -88 -40 -135 -62 -47 -22 -103 -48 -125 -58 -121 -55 -223
-103 -246 -115 -14 -8 -29 -12 -33 -8 -3 3 -6 1 -6 -5 0 -6 -10 -14 -22 -18
-37 -11 -199 -85 -208 -94 -3 -3 -24 -12 -47 -19 l-41 -14 -1 -414 0 -414 67
-30 c37 -17 96 -45 132 -62 36 -18 67 -32 70 -33 8 -1 124 -54 143 -64 32 -19
52 -28 87 -43 19 -8 76 -34 125 -57 50 -23 113 -53 140 -65 28 -13 118 -55
200 -93 83 -38 177 -82 210 -97 33 -15 96 -45 140 -65 44 -21 107 -50 140 -65
33 -15 92 -42 130 -60 120 -56 185 -85 194 -85 5 0 14 -7 21 -15 6 -8 15 -14
18 -13 4 1 27 -7 52 -18 25 -11 47 -21 50 -21 3 0 27 -12 53 -26 26 -15 54
-27 61 -27 8 0 19 -7 26 -15 7 -9 15 -14 17 -11 3 2 45 -16 94 -40 49 -24 91
-44 93 -44 2 0 61 -27 131 -60 70 -33 128 -60 130 -60 3 0 135 -61 295 -137
41 -20 102 -48 135 -63 33 -15 87 -40 120 -56 33 -15 62 -29 65 -29 3 -1 35
-16 73 -33 37 -18 97 -46 135 -64 37 -17 69 -32 72 -33 3 -1 30 -13 60 -27 30
-14 87 -41 125 -58 163 -76 262 -122 297 -140 20 -10 38 -17 41 -14 2 2 10 -2
17 -11 7 -8 18 -15 25 -15 7 0 39 -13 71 -29 33 -16 82 -39 109 -51 28 -12 93
-42 145 -67 52 -24 120 -56 150 -69 30 -14 72 -34 93 -45 21 -12 41 -18 44
-15 5 4 8 1034 4 1091 -1 6 -19 16 -41 23 -23 7 -64 24 -92 37 -29 14 -56 25
-60 25 -5 0 -25 7 -46 17 -20 9 -40 17 -44 18 -5 2 -10 4 -13 5 -3 1 -8 3 -12
4 -5 1 -30 12 -57 24 -27 12 -54 22 -62 22 -7 0 -16 5 -19 10 -4 6 -10 8 -15
5 -4 -3 -13 2 -20 10 -7 8 -22 15 -34 15 -12 0 -26 4 -32 9 -5 4 -63 29 -129
56 -66 26 -131 52 -145 58 -14 5 -29 11 -35 13 -5 1 -93 37 -195 79 -102 42
-203 83 -225 92 -22 8 -49 19 -60 23 -69 30 -182 75 -191 76 -5 1 -29 11 -52
22 -24 11 -56 24 -72 27 -17 4 -30 11 -30 16 0 5 -5 9 -10 9 -9 0 -145 51
-220 83 -14 6 -27 11 -30 12 -3 1 -22 9 -44 18 -21 9 -41 17 -43 17 -3 0 -19
6 -36 14 -49 20 -73 30 -352 143 -143 58 -271 110 -285 116 -14 5 -29 11 -35
13 -8 2 -250 101 -335 137 -14 5 -29 11 -35 13 -5 1 -41 16 -80 32 -38 16 -79
32 -90 37 -11 4 -26 9 -33 11 -7 1 -30 11 -51 22 -22 12 -42 18 -45 15 -3 -4
-6 -1 -6 5 0 7 -3 11 -7 10 -10 -3 -97 32 -92 36 10 9 223 96 235 96 8 0 14 5
14 12 0 6 3 9 6 6 3 -4 31 5 62 19 72 32 104 45 117 49 6 1 47 18 92 38 44 19
84 32 87 29 3 -4 6 -1 6 5 0 7 7 12 15 12 8 0 23 4 33 10 21 12 109 50 115 50
3 0 21 7 41 15 20 8 39 16 43 16 5 0 19 7 33 14 14 8 115 51 225 96 110 45
253 104 317 130 64 27 122 50 129 51 8 2 20 9 27 16 7 6 20 12 28 12 9 0 41
12 72 26 31 14 75 33 97 41 22 8 54 21 70 28 17 8 57 24 90 37 33 13 62 26 63
31 2 4 9 7 15 7 11 0 139 49 182 70 22 10 77 33 85 34 13 3 218 89 242 102 15
8 31 15 35 16 25 4 43 11 43 17 0 4 6 8 13 8 12 0 101 34 207 79 19 9 46 20
60 26 14 5 39 16 55 23 17 7 66 28 110 45 44 18 98 40 120 50 47 20 108 44
115 46 3 0 23 9 45 19 37 16 84 36 95 40 54 20 70 29 71 38 3 42 1 1088 -2
1091 -2 1 -22 -7 -45 -18z"/>
<path d="M17839 13752 c-4 -165 1 -1035 6 -1040 4 -4 10 -7 13 -8 11 -1 66
-23 84 -34 10 -6 25 -10 34 -10 9 0 28 -7 42 -14 15 -8 88 -38 162 -66 74 -29
144 -56 155 -60 11 -5 42 -18 69 -29 27 -12 52 -21 56 -21 4 0 25 -8 46 -17
22 -9 41 -17 44 -18 5 -2 41 -16 95 -38 17 -6 32 -12 35 -13 3 0 19 -6 35 -13
17 -7 59 -24 95 -37 64 -25 89 -35 133 -54 12 -5 105 -41 207 -80 181 -70 204
-79 265 -105 63 -26 171 -65 183 -65 6 0 12 -4 12 -10 0 -5 6 -10 13 -10 9 0
296 -109 432 -165 11 -4 25 -9 30 -11 6 -2 37 -14 70 -27 70 -29 98 -40 105
-42 3 -1 14 -5 25 -10 11 -4 83 -32 160 -62 77 -30 154 -61 170 -68 33 -14
151 -60 260 -100 39 -15 84 -32 100 -40 44 -19 218 -87 230 -89 6 -2 28 -10
50 -20 22 -10 94 -38 160 -63 117 -44 152 -62 127 -64 -17 -2 -23 -4 -64 -22
-21 -10 -39 -17 -41 -17 -3 0 -22 -8 -43 -17 -22 -9 -42 -18 -46 -19 -5 -1
-10 -3 -13 -4 -3 -1 -8 -3 -12 -4 -5 -2 -21 -8 -38 -16 -16 -7 -43 -19 -60
-25 -34 -15 -197 -79 -205 -80 -3 -1 -14 -5 -25 -10 -75 -31 -292 -118 -300
-120 -5 -1 -21 -7 -35 -12 -14 -6 -61 -25 -105 -42 -44 -17 -89 -36 -100 -41
-58 -26 -302 -120 -313 -120 -7 0 -12 -4 -12 -8 0 -5 -6 -9 -12 -9 -14 0 -362
-137 -390 -153 -10 -6 -22 -10 -27 -10 -5 0 -26 -8 -47 -17 -22 -9 -41 -17
-44 -18 -3 -1 -18 -7 -33 -13 -16 -7 -31 -12 -34 -12 -3 0 -19 -7 -36 -15 -18
-8 -68 -28 -112 -45 -44 -17 -89 -35 -100 -40 -11 -5 -96 -38 -190 -75 -93
-36 -179 -70 -190 -75 -11 -5 -56 -23 -100 -41 -44 -17 -86 -36 -94 -42 -8 -7
-17 -11 -20 -10 -8 3 -39 -5 -76 -22 -16 -7 -118 -47 -225 -89 -107 -43 -224
-89 -260 -104 -36 -15 -67 -27 -70 -28 -3 0 -18 -6 -35 -13 -16 -7 -65 -26
-108 -43 -43 -17 -80 -35 -83 -40 -8 -13 -8 -1057 0 -1065 3 -4 16 -1 29 5 60
30 252 112 263 112 6 0 17 7 24 15 6 8 15 14 18 13 7 -2 25 6 127 52 28 12 64
28 80 35 31 13 82 36 195 87 69 32 99 44 115 48 6 2 26 11 45 21 19 11 40 19
47 19 7 0 13 5 13 10 0 6 8 10 18 10 10 0 22 3 26 8 4 4 11 7 14 7 4 1 38 15
75 33 38 18 70 32 72 32 2 0 39 16 82 36 92 42 145 66 193 87 19 8 62 27 95
42 33 15 75 33 93 41 17 8 47 20 65 28 17 8 57 25 87 39 30 14 78 35 105 47
28 12 75 33 105 47 58 27 102 45 110 48 3 0 28 11 55 24 28 12 64 29 82 37 17
8 36 14 42 14 6 0 11 5 11 10 0 6 5 10 11 10 11 0 180 72 309 133 47 21 90 40
95 41 12 3 100 42 137 62 14 8 33 14 42 14 9 0 16 5 16 10 0 6 7 10 15 10 9 0
42 14 75 30 33 17 66 30 75 30 8 0 15 5 15 10 0 6 8 10 18 10 10 0 21 3 25 6
10 10 197 92 197 86 0 -3 8 2 18 11 9 8 22 17 27 18 15 3 53 19 132 55 40 19
75 34 78 34 3 0 38 15 79 34 41 19 107 49 147 66 88 38 138 60 201 89 26 11
52 21 57 21 6 0 11 5 11 10 0 6 8 10 18 10 10 0 23 5 29 11 6 6 17 12 24 13 8
1 45 17 83 34 38 18 71 32 73 32 2 0 34 14 71 31 110 50 125 57 172 77 108 47
255 114 259 118 7 7 6 806 -1 817 -4 7 -11 12 -15 13 -4 0 -24 8 -43 17 -234
105 -285 127 -297 127 -7 0 -13 4 -13 8 0 4 -17 14 -37 21 -21 8 -72 29 -113
48 -41 19 -96 43 -121 53 -26 11 -80 35 -120 54 -41 19 -108 49 -149 67 -41
17 -97 42 -125 54 -27 13 -72 33 -100 45 -27 12 -63 28 -79 36 -16 8 -35 14
-43 14 -7 0 -13 5 -13 10 0 6 -7 10 -15 10 -8 0 -42 13 -77 29 -88 40 -138 63
-333 149 -93 41 -190 84 -215 95 -25 11 -47 21 -50 22 -3 1 -22 9 -42 18 -21
9 -55 25 -75 34 -21 9 -41 16 -45 15 -5 -1 -8 2 -8 8 0 6 -3 9 -7 8 -5 -1 -26
7 -48 17 -22 10 -42 19 -45 20 -15 5 -115 49 -370 163 -19 9 -37 16 -40 17 -3
1 -25 11 -50 22 -25 11 -103 46 -175 78 -71 31 -163 72 -203 91 -40 19 -75 34
-77 34 -3 0 -34 13 -69 30 -93 42 -140 63 -146 64 -3 1 -23 10 -45 20 -22 10
-53 24 -70 31 -16 7 -56 25 -87 39 -59 27 -109 47 -118 48 -3 0 -11 5 -19 11
-7 6 -18 12 -25 13 -6 1 -45 18 -86 38 -41 20 -75 36 -75 36 0 -3 -53 19 -110
46 -33 15 -62 28 -65 29 -3 1 -21 8 -40 17 -19 9 -93 42 -165 73 -71 32 -146
65 -165 73 -19 9 -38 15 -42 14 -5 -1 -8 3 -8 8 0 6 -6 10 -13 10 -13 0 -204
84 -214 94 -4 3 -14 6 -23 6 -9 0 -21 5 -28 12 -22 22 -42 18 -43 -10z"/>
</g>
</svg>
