<svg width="400" height="136.480686695279" viewBox="0, 0, 400,136.480686695279" xmlns="http://www.w3.org/2000/svg">
  <g id="faro">
    <path fill="#01426A" d="M320.667 20.750 C 320.513 20.935,320.103 21.000,319.081 21.000 C 318.009 21.000,317.681 21.056,317.606 21.250 C 317.533 21.442,317.217 21.500,316.255 21.500 C 315.530 21.500,315.000 21.570,315.000 21.667 C 315.000 21.758,314.672 21.833,314.270 21.833 C 313.825 21.833,313.460 21.931,313.333 22.083 C 313.208 22.235,312.843 22.333,312.406 22.333 C 312.010 22.333,311.640 22.408,311.583 22.500 C 311.527 22.592,311.269 22.667,311.011 22.667 C 310.752 22.667,310.447 22.779,310.333 22.917 C 310.219 23.054,309.914 23.167,309.656 23.167 C 309.398 23.167,309.140 23.242,309.083 23.333 C 309.027 23.425,308.769 23.500,308.511 23.500 C 308.252 23.500,307.947 23.613,307.833 23.750 C 307.719 23.887,307.494 24.000,307.333 24.000 C 307.172 24.000,306.947 24.113,306.833 24.250 C 306.719 24.387,306.414 24.500,306.156 24.500 C 305.898 24.500,305.640 24.575,305.583 24.667 C 305.527 24.758,305.332 24.833,305.152 24.833 C 304.971 24.833,304.780 24.946,304.727 25.083 C 304.674 25.221,304.493 25.333,304.325 25.333 C 304.157 25.333,303.973 25.408,303.917 25.500 C 303.860 25.592,303.666 25.667,303.485 25.667 C 303.304 25.667,303.113 25.779,303.060 25.917 C 303.008 26.054,302.835 26.167,302.678 26.167 C 302.520 26.167,302.215 26.354,302.000 26.583 C 301.785 26.813,301.481 27.000,301.325 27.000 C 301.169 27.000,300.947 27.113,300.833 27.250 C 300.719 27.387,300.519 27.500,300.388 27.500 C 300.258 27.500,299.977 27.688,299.765 27.917 C 299.552 28.146,299.269 28.333,299.135 28.333 C 299.001 28.333,298.715 28.521,298.500 28.750 C 298.285 28.979,298.006 29.167,297.881 29.167 C 297.756 29.167,297.342 29.467,296.960 29.833 C 296.578 30.200,296.185 30.500,296.085 30.500 C 295.986 30.500,295.535 30.875,295.083 31.333 C 294.632 31.792,294.148 32.167,294.008 32.167 C 293.674 32.167,289.333 36.503,289.333 36.837 C 289.333 36.979,288.921 37.502,288.417 38.000 C 287.912 38.498,287.500 38.990,287.500 39.094 C 287.500 39.197,287.237 39.552,286.917 39.883 C 286.596 40.213,286.333 40.586,286.333 40.711 C 286.333 40.835,286.108 41.153,285.833 41.417 C 285.558 41.680,285.333 41.986,285.333 42.097 C 285.333 42.208,285.147 42.475,284.920 42.691 C 284.692 42.907,284.504 43.210,284.503 43.365 C 284.501 43.520,284.425 43.693,284.333 43.750 C 284.242 43.807,284.167 44.001,284.167 44.182 C 284.167 44.363,284.054 44.554,283.917 44.606 C 283.779 44.659,283.667 44.882,283.667 45.101 C 283.667 45.321,283.592 45.500,283.500 45.500 C 283.408 45.500,283.333 45.652,283.333 45.839 C 283.333 46.025,283.221 46.220,283.083 46.273 C 282.946 46.326,282.833 46.540,282.833 46.750 C 282.833 46.960,282.721 47.174,282.583 47.227 C 282.446 47.280,282.333 47.471,282.333 47.652 C 282.333 47.832,282.258 48.027,282.167 48.083 C 282.075 48.140,282.000 48.324,282.000 48.492 C 282.000 48.660,281.887 48.841,281.750 48.894 C 281.593 48.954,281.500 49.209,281.500 49.578 C 281.500 49.902,281.425 50.167,281.333 50.167 C 281.242 50.167,281.167 50.307,281.167 50.480 C 281.167 50.652,281.054 50.886,280.917 51.000 C 280.779 51.114,280.667 51.461,280.667 51.770 C 280.667 52.080,280.592 52.333,280.500 52.333 C 280.408 52.333,280.333 52.598,280.333 52.922 C 280.333 53.291,280.240 53.546,280.083 53.606 C 279.932 53.665,279.833 53.917,279.833 54.247 C 279.833 54.547,279.721 54.886,279.583 55.000 C 279.441 55.118,279.333 55.482,279.333 55.844 C 279.333 56.194,279.258 56.527,279.167 56.583 C 279.075 56.640,279.000 57.123,279.000 57.656 C 279.000 58.315,278.920 58.692,278.750 58.833 C 278.572 58.981,278.500 59.372,278.500 60.187 C 278.500 60.862,278.429 61.333,278.328 61.333 C 278.217 61.333,278.173 62.081,278.203 63.458 L 278.250 65.583 292.815 65.626 C 308.382 65.671,307.833 65.701,307.833 64.823 C 307.833 64.564,307.908 64.307,308.000 64.250 C 308.092 64.193,308.167 63.936,308.167 63.677 C 308.167 63.419,308.279 63.114,308.417 63.000 C 308.554 62.886,308.667 62.581,308.667 62.323 C 308.667 62.064,308.742 61.807,308.833 61.750 C 308.925 61.693,309.000 61.511,309.000 61.344 C 309.000 61.177,309.112 60.947,309.250 60.833 C 309.387 60.719,309.500 60.485,309.500 60.313 C 309.500 60.141,309.575 60.000,309.667 60.000 C 309.758 60.000,309.833 59.865,309.833 59.700 C 309.833 59.536,310.133 59.108,310.500 58.750 C 310.867 58.392,311.167 58.004,311.167 57.889 C 311.167 57.627,314.310 54.500,314.574 54.500 C 314.679 54.500,315.059 54.200,315.417 53.833 C 315.775 53.467,316.153 53.167,316.258 53.167 C 316.518 53.167,317.471 52.682,317.590 52.489 C 317.643 52.404,317.823 52.333,317.989 52.333 C 318.156 52.333,318.386 52.221,318.500 52.083 C 318.614 51.946,318.919 51.833,319.177 51.833 C 319.436 51.833,319.693 51.758,319.750 51.667 C 319.807 51.575,320.177 51.500,320.573 51.500 C 321.009 51.500,321.374 51.402,321.500 51.250 C 321.647 51.073,322.037 51.000,322.844 51.000 C 323.469 51.000,324.027 50.925,324.083 50.833 C 324.140 50.742,324.702 50.667,325.333 50.667 C 325.964 50.667,326.527 50.742,326.583 50.833 C 326.640 50.925,327.198 51.000,327.823 51.000 C 328.630 51.000,329.019 51.073,329.167 51.250 C 329.281 51.387,329.627 51.500,329.937 51.500 C 330.247 51.500,330.500 51.575,330.500 51.667 C 330.500 51.758,330.765 51.833,331.089 51.833 C 331.458 51.833,331.713 51.926,331.773 52.083 C 331.826 52.221,332.002 52.333,332.164 52.333 C 332.326 52.333,332.553 52.446,332.667 52.583 C 332.781 52.721,333.011 52.833,333.177 52.833 C 333.344 52.833,333.527 52.908,333.583 53.000 C 333.640 53.092,333.824 53.167,333.992 53.167 C 334.160 53.167,334.341 53.279,334.394 53.417 C 334.446 53.554,334.626 53.667,334.793 53.667 C 334.959 53.667,335.465 54.042,335.917 54.500 C 336.368 54.958,336.828 55.333,336.939 55.333 C 337.201 55.333,338.167 56.299,338.167 56.561 C 338.167 56.672,338.542 57.132,339.000 57.583 C 339.458 58.035,339.833 58.541,339.833 58.707 C 339.833 58.874,339.946 59.054,340.083 59.106 C 340.221 59.159,340.333 59.326,340.333 59.478 C 340.333 59.629,340.521 59.956,340.750 60.203 C 340.979 60.450,341.167 60.759,341.167 60.889 C 341.167 61.019,341.279 61.219,341.417 61.333 C 341.554 61.447,341.667 61.752,341.667 62.011 C 341.667 62.269,341.742 62.527,341.833 62.583 C 341.925 62.640,342.000 62.898,342.000 63.156 C 342.000 63.414,342.113 63.719,342.250 63.833 C 342.401 63.958,342.500 64.323,342.500 64.750 C 342.500 65.177,342.599 65.542,342.750 65.667 C 342.952 65.835,343.000 66.360,343.000 68.417 C 343.000 70.473,342.952 70.999,342.750 71.167 C 342.605 71.287,342.500 71.651,342.500 72.032 C 342.500 72.395,342.388 72.803,342.250 72.940 C 342.113 73.078,342.000 73.481,342.000 73.835 C 342.000 74.190,341.925 74.527,341.833 74.583 C 341.742 74.640,341.667 74.823,341.667 74.989 C 341.667 75.156,341.554 75.386,341.417 75.500 C 341.279 75.614,341.167 75.848,341.167 76.020 C 341.167 76.193,341.092 76.333,341.000 76.333 C 340.908 76.333,340.833 76.474,340.833 76.646 C 340.833 76.818,340.721 77.053,340.583 77.167 C 340.446 77.281,340.333 77.481,340.333 77.612 C 340.333 77.742,340.146 78.023,339.917 78.235 C 339.688 78.448,339.500 78.727,339.500 78.855 C 339.500 79.178,335.974 82.667,335.647 82.667 C 335.502 82.667,335.211 82.892,335.000 83.167 C 334.789 83.442,334.482 83.667,334.318 83.667 C 334.154 83.667,333.973 83.742,333.917 83.833 C 333.860 83.925,333.666 84.000,333.485 84.000 C 333.304 84.000,333.113 84.112,333.060 84.250 C 333.008 84.388,332.827 84.500,332.659 84.500 C 332.491 84.500,332.307 84.575,332.250 84.667 C 332.193 84.758,331.999 84.833,331.818 84.833 C 331.637 84.833,331.446 84.946,331.394 85.083 C 331.335 85.236,331.082 85.333,330.742 85.333 C 330.436 85.333,330.140 85.408,330.083 85.500 C 330.027 85.592,329.645 85.667,329.235 85.667 C 328.726 85.667,328.459 85.746,328.394 85.917 C 328.313 86.127,327.796 86.167,325.169 86.167 C 322.592 86.167,322.004 86.123,321.833 85.917 C 321.719 85.779,321.414 85.667,321.156 85.667 C 320.898 85.667,320.640 85.592,320.583 85.500 C 320.527 85.408,320.156 85.333,319.761 85.333 C 319.324 85.333,318.959 85.235,318.833 85.083 C 318.719 84.946,318.485 84.833,318.313 84.833 C 318.141 84.833,318.000 84.758,318.000 84.667 C 318.000 84.575,317.859 84.500,317.687 84.500 C 317.515 84.500,317.281 84.387,317.167 84.250 C 317.053 84.112,316.846 84.000,316.707 84.000 C 316.568 84.000,316.281 83.813,316.069 83.583 C 315.856 83.354,315.580 83.167,315.454 83.167 C 315.328 83.167,315.049 82.979,314.833 82.750 C 314.618 82.521,314.332 82.333,314.197 82.333 C 313.882 82.333,311.667 80.120,311.667 79.806 C 311.667 79.675,311.367 79.275,311.000 78.917 C 310.633 78.559,310.333 78.139,310.333 77.984 C 310.333 77.829,310.221 77.659,310.083 77.606 C 309.946 77.554,309.833 77.371,309.833 77.201 C 309.833 77.031,309.646 76.715,309.417 76.500 C 309.167 76.265,309.000 75.924,309.000 75.647 C 309.000 75.394,308.925 75.140,308.833 75.083 C 308.742 75.027,308.667 74.838,308.667 74.665 C 308.667 74.492,308.560 74.290,308.430 74.217 C 308.300 74.143,308.169 73.821,308.138 73.500 L 308.083 72.917 293.167 72.917 L 278.250 72.917 278.198 73.542 C 278.168 73.903,278.221 74.167,278.323 74.167 C 278.431 74.167,278.500 74.616,278.500 75.313 C 278.500 76.128,278.572 76.519,278.750 76.667 C 278.902 76.792,279.000 77.157,279.000 77.594 C 279.000 77.990,279.075 78.360,279.167 78.417 C 279.258 78.473,279.333 78.844,279.333 79.239 C 279.333 79.676,279.432 80.041,279.583 80.167 C 279.734 80.292,279.833 80.657,279.833 81.086 C 279.833 81.565,279.915 81.829,280.083 81.894 C 280.221 81.946,280.333 82.137,280.333 82.318 C 280.333 82.499,280.408 82.693,280.500 82.750 C 280.592 82.807,280.667 83.103,280.667 83.409 C 280.667 83.749,280.764 84.002,280.917 84.060 C 281.054 84.113,281.167 84.304,281.167 84.485 C 281.167 84.666,281.242 84.860,281.333 84.917 C 281.425 84.973,281.500 85.231,281.500 85.489 C 281.500 85.748,281.612 86.053,281.750 86.167 C 281.887 86.281,282.000 86.466,282.000 86.578 C 282.000 86.849,282.480 87.801,282.677 87.923 C 282.763 87.976,282.833 88.270,282.833 88.575 C 282.833 88.916,282.930 89.168,283.083 89.227 C 283.221 89.280,283.333 89.462,283.333 89.632 C 283.333 89.803,283.521 90.118,283.750 90.333 C 283.979 90.549,284.167 90.844,284.167 90.989 C 284.167 91.135,284.354 91.395,284.583 91.567 C 284.813 91.739,285.000 92.015,285.000 92.180 C 285.000 92.345,285.075 92.527,285.167 92.583 C 285.258 92.640,285.333 92.817,285.333 92.976 C 285.333 93.135,285.555 93.450,285.826 93.674 C 286.097 93.899,286.322 94.202,286.326 94.346 C 286.330 94.490,286.521 94.785,286.750 95.000 C 286.979 95.215,287.167 95.513,287.167 95.661 C 287.167 95.810,287.542 96.285,288.000 96.718 C 288.458 97.150,288.833 97.598,288.833 97.712 C 288.833 97.990,294.693 103.833,294.971 103.833 C 295.091 103.833,295.437 104.096,295.739 104.417 C 296.042 104.737,296.397 105.000,296.528 105.000 C 296.659 105.000,297.059 105.300,297.417 105.667 C 297.775 106.033,298.166 106.333,298.287 106.333 C 298.407 106.333,298.748 106.582,299.045 106.885 C 299.581 107.435,300.533 108.000,300.922 108.000 C 301.034 108.000,301.219 108.113,301.333 108.250 C 301.447 108.388,301.674 108.500,301.836 108.500 C 301.998 108.500,302.174 108.612,302.227 108.750 C 302.280 108.887,302.471 109.000,302.652 109.000 C 302.832 109.000,303.027 109.075,303.083 109.167 C 303.140 109.258,303.324 109.333,303.492 109.333 C 303.660 109.333,303.841 109.446,303.894 109.583 C 303.946 109.721,304.137 109.833,304.318 109.833 C 304.499 109.833,304.693 109.908,304.750 110.000 C 304.807 110.092,304.999 110.167,305.177 110.167 C 305.354 110.167,305.500 110.227,305.500 110.301 C 305.500 110.443,306.657 111.000,306.952 111.000 C 307.048 111.000,307.219 111.112,307.333 111.250 C 307.447 111.387,307.747 111.500,308.000 111.500 C 308.253 111.500,308.553 111.612,308.667 111.750 C 308.781 111.888,309.086 112.000,309.344 112.000 C 309.602 112.000,309.860 112.075,309.917 112.167 C 309.973 112.258,310.344 112.333,310.739 112.333 C 311.176 112.333,311.541 112.432,311.667 112.583 C 311.781 112.721,312.086 112.833,312.344 112.833 C 312.602 112.833,312.860 112.908,312.917 113.000 C 312.973 113.092,313.231 113.167,313.489 113.167 C 313.748 113.167,314.053 113.279,314.167 113.417 C 314.292 113.568,314.657 113.667,315.094 113.667 C 315.490 113.667,315.860 113.742,315.917 113.833 C 315.973 113.925,316.717 114.000,317.573 114.000 C 318.750 114.000,319.176 114.061,319.333 114.250 C 319.510 114.463,320.388 114.500,325.333 114.500 C 330.279 114.500,331.156 114.463,331.333 114.250 C 331.481 114.073,331.870 114.000,332.677 114.000 C 333.302 114.000,333.860 113.925,333.917 113.833 C 333.973 113.742,334.457 113.667,334.992 113.667 C 335.703 113.667,335.990 113.599,336.060 113.417 C 336.126 113.246,336.393 113.167,336.902 113.167 C 337.312 113.167,337.693 113.092,337.750 113.000 C 337.807 112.908,338.064 112.833,338.323 112.833 C 338.581 112.833,338.886 112.721,339.000 112.583 C 339.114 112.446,339.461 112.333,339.770 112.333 C 340.080 112.333,340.333 112.258,340.333 112.167 C 340.333 112.075,340.598 112.000,340.922 112.000 C 341.291 112.000,341.546 111.907,341.606 111.750 C 341.665 111.598,341.917 111.500,342.247 111.500 C 342.547 111.500,342.886 111.387,343.000 111.250 C 343.114 111.112,343.348 111.000,343.520 111.000 C 343.693 111.000,343.833 110.925,343.833 110.833 C 343.833 110.742,343.974 110.667,344.146 110.667 C 344.318 110.667,344.553 110.554,344.667 110.417 C 344.781 110.279,345.015 110.167,345.187 110.167 C 345.359 110.167,345.500 110.092,345.500 110.000 C 345.500 109.908,345.641 109.833,345.813 109.833 C 345.985 109.833,346.219 109.721,346.333 109.583 C 346.447 109.446,346.682 109.333,346.854 109.333 C 347.026 109.333,347.167 109.258,347.167 109.167 C 347.167 109.075,347.307 109.000,347.480 109.000 C 347.652 109.000,347.886 108.888,348.000 108.750 C 348.114 108.613,348.343 108.500,348.508 108.500 C 348.674 108.500,348.957 108.312,349.137 108.083 C 349.317 107.854,349.576 107.667,349.712 107.667 C 349.848 107.667,350.053 107.554,350.167 107.417 C 350.281 107.279,350.502 107.167,350.658 107.167 C 350.814 107.167,351.118 106.979,351.333 106.750 C 351.549 106.521,351.843 106.333,351.987 106.332 C 352.132 106.331,352.512 106.032,352.833 105.667 C 353.154 105.302,353.532 105.003,353.672 105.002 C 353.812 105.001,354.372 104.550,354.917 104.000 C 355.461 103.450,356.011 103.000,356.140 103.000 C 356.451 103.000,360.500 98.959,360.500 98.648 C 360.500 98.515,360.912 97.998,361.417 97.500 C 361.921 97.002,362.333 96.510,362.333 96.406 C 362.333 96.303,362.596 95.948,362.917 95.617 C 363.238 95.287,363.500 94.913,363.500 94.787 C 363.500 94.661,363.688 94.382,363.917 94.167 C 364.146 93.951,364.335 93.657,364.336 93.513 C 364.338 93.368,364.522 93.076,364.746 92.864 C 365.169 92.463,365.667 91.592,365.667 91.253 C 365.667 91.146,365.854 90.882,366.083 90.667 C 366.313 90.451,366.500 90.146,366.500 89.989 C 366.500 89.831,366.613 89.659,366.750 89.606 C 366.887 89.554,367.000 89.363,367.000 89.182 C 367.000 89.001,367.075 88.807,367.167 88.750 C 367.258 88.693,367.333 88.499,367.333 88.318 C 367.333 88.137,367.446 87.946,367.583 87.894 C 367.721 87.841,367.833 87.665,367.833 87.503 C 367.833 87.340,367.946 87.114,368.083 87.000 C 368.221 86.886,368.333 86.581,368.333 86.323 C 368.333 86.064,368.408 85.807,368.500 85.750 C 368.592 85.693,368.667 85.511,368.667 85.344 C 368.667 85.177,368.779 84.947,368.917 84.833 C 369.054 84.719,369.167 84.414,369.167 84.156 C 369.167 83.898,369.242 83.640,369.333 83.583 C 369.425 83.527,369.500 83.269,369.500 83.011 C 369.500 82.752,369.613 82.447,369.750 82.333 C 369.887 82.219,370.000 81.914,370.000 81.656 C 370.000 81.398,370.075 81.140,370.167 81.083 C 370.258 81.027,370.333 80.656,370.333 80.261 C 370.333 79.824,370.432 79.459,370.583 79.333 C 370.728 79.213,370.833 78.849,370.833 78.468 C 370.833 78.105,370.946 77.697,371.083 77.560 C 371.257 77.385,371.333 76.959,371.333 76.155 C 371.333 75.496,371.405 75.000,371.500 75.000 C 371.598 75.000,371.667 74.423,371.667 73.604 C 371.667 72.566,371.731 72.154,371.917 72.000 C 372.126 71.826,372.167 71.140,372.167 67.750 C 372.167 64.360,372.126 63.674,371.917 63.500 C 371.727 63.343,371.667 62.917,371.667 61.739 C 371.667 60.884,371.592 60.140,371.500 60.083 C 371.408 60.027,371.333 59.469,371.333 58.844 C 371.333 58.037,371.261 57.647,371.083 57.500 C 370.946 57.386,370.833 57.086,370.833 56.833 C 370.833 56.581,370.721 56.281,370.583 56.167 C 370.432 56.041,370.333 55.676,370.333 55.239 C 370.333 54.844,370.258 54.473,370.167 54.417 C 370.075 54.360,370.000 53.978,370.000 53.568 C 370.000 53.059,369.921 52.792,369.750 52.727 C 369.613 52.674,369.500 52.493,369.500 52.325 C 369.500 52.157,369.425 51.973,369.333 51.917 C 369.242 51.860,369.167 51.602,369.167 51.344 C 369.167 51.086,369.054 50.781,368.917 50.667 C 368.779 50.553,368.667 50.206,368.667 49.896 C 368.667 49.587,368.592 49.333,368.500 49.333 C 368.408 49.333,368.333 49.193,368.333 49.020 C 368.333 48.848,368.221 48.614,368.083 48.500 C 367.946 48.386,367.833 48.160,367.833 47.997 C 367.833 47.835,367.721 47.659,367.583 47.606 C 367.446 47.554,367.333 47.363,367.333 47.182 C 367.333 47.001,367.258 46.807,367.167 46.750 C 367.075 46.693,367.000 46.499,367.000 46.318 C 367.000 46.137,366.887 45.946,366.750 45.894 C 366.613 45.841,366.500 45.660,366.500 45.492 C 366.500 45.324,366.425 45.140,366.333 45.083 C 366.242 45.027,366.167 44.844,366.167 44.677 C 366.167 44.511,366.054 44.281,365.917 44.167 C 365.779 44.053,365.667 43.848,365.667 43.712 C 365.667 43.576,365.479 43.317,365.250 43.137 C 365.021 42.957,364.833 42.678,364.833 42.517 C 364.833 42.356,364.646 42.049,364.417 41.833 C 364.188 41.618,364.000 41.315,364.000 41.161 C 364.000 41.006,363.813 40.739,363.583 40.567 C 363.354 40.395,363.167 40.137,363.167 39.994 C 363.167 39.851,362.867 39.441,362.500 39.083 C 362.133 38.725,361.833 38.326,361.833 38.195 C 361.833 37.884,354.785 30.833,354.474 30.833 C 354.342 30.833,353.941 30.533,353.583 30.167 C 353.225 29.800,352.832 29.500,352.709 29.500 C 352.586 29.500,352.297 29.313,352.068 29.083 C 351.839 28.854,351.555 28.667,351.438 28.667 C 351.321 28.667,351.049 28.479,350.833 28.250 C 350.618 28.021,350.339 27.833,350.214 27.833 C 350.088 27.833,349.783 27.646,349.536 27.417 C 349.289 27.188,348.963 27.000,348.811 27.000 C 348.660 27.000,348.492 26.887,348.440 26.750 C 348.387 26.613,348.196 26.500,348.015 26.500 C 347.834 26.500,347.640 26.425,347.583 26.333 C 347.527 26.242,347.343 26.167,347.175 26.167 C 347.007 26.167,346.826 26.054,346.773 25.917 C 346.720 25.779,346.529 25.667,346.348 25.667 C 346.168 25.667,345.973 25.592,345.917 25.500 C 345.860 25.408,345.668 25.333,345.490 25.333 C 345.312 25.333,345.167 25.273,345.167 25.199 C 345.167 25.057,344.010 24.500,343.714 24.500 C 343.619 24.500,343.447 24.387,343.333 24.250 C 343.219 24.113,342.919 24.000,342.667 24.000 C 342.414 24.000,342.114 23.887,342.000 23.750 C 341.886 23.613,341.581 23.500,341.323 23.500 C 341.064 23.500,340.807 23.425,340.750 23.333 C 340.693 23.242,340.499 23.167,340.318 23.167 C 340.137 23.167,339.946 23.054,339.894 22.917 C 339.829 22.748,339.564 22.667,339.075 22.667 C 338.678 22.667,338.307 22.592,338.250 22.500 C 338.193 22.408,337.823 22.333,337.427 22.333 C 336.991 22.333,336.626 22.235,336.500 22.083 C 336.386 21.946,336.039 21.833,335.730 21.833 C 335.420 21.833,335.167 21.758,335.167 21.667 C 335.167 21.572,334.673 21.500,334.020 21.500 C 333.205 21.500,332.814 21.428,332.667 21.250 C 332.510 21.061,332.084 21.000,330.917 21.000 C 329.749 21.000,329.324 20.939,329.167 20.750 C 328.993 20.540,328.307 20.500,324.917 20.500 C 321.527 20.500,320.841 20.540,320.667 20.750 M24.541 67.958 L 24.583 113.583 40.583 113.583 L 56.583 113.583 56.626 98.208 L 56.668 82.833 77.968 82.833 C 94.311 82.833,99.313 82.787,99.467 82.633 C 99.756 82.344,99.756 56.156,99.467 55.867 C 99.313 55.713,94.311 55.667,77.967 55.667 L 56.667 55.667 56.667 52.501 L 56.667 49.335 78.292 49.292 L 99.917 49.250 99.959 36.098 C 99.998 24.037,99.979 22.920,99.725 22.639 C 99.458 22.344,98.117 22.333,61.974 22.333 L 24.499 22.333 24.541 67.958 M126.109 22.638 C 125.957 22.806,125.833 23.134,125.833 23.368 C 125.833 23.601,125.721 23.886,125.583 24.000 C 125.446 24.114,125.333 24.414,125.333 24.667 C 125.333 24.919,125.221 25.219,125.083 25.333 C 124.946 25.447,124.833 25.752,124.833 26.011 C 124.833 26.269,124.758 26.527,124.667 26.583 C 124.575 26.640,124.500 26.936,124.500 27.242 C 124.500 27.582,124.403 27.835,124.250 27.894 C 124.093 27.954,124.000 28.209,124.000 28.578 C 124.000 28.902,123.925 29.167,123.833 29.167 C 123.742 29.167,123.667 29.432,123.667 29.755 C 123.667 30.125,123.574 30.380,123.417 30.440 C 123.265 30.498,123.167 30.750,123.167 31.081 C 123.167 31.381,123.054 31.719,122.917 31.833 C 122.779 31.947,122.667 32.252,122.667 32.511 C 122.667 32.769,122.592 33.027,122.500 33.083 C 122.408 33.140,122.333 33.398,122.333 33.656 C 122.333 33.914,122.221 34.219,122.083 34.333 C 121.946 34.447,121.833 34.752,121.833 35.011 C 121.833 35.269,121.758 35.527,121.667 35.583 C 121.575 35.640,121.500 35.936,121.500 36.242 C 121.500 36.582,121.403 36.835,121.250 36.894 C 121.093 36.954,121.000 37.209,121.000 37.578 C 121.000 37.902,120.925 38.167,120.833 38.167 C 120.742 38.167,120.667 38.432,120.667 38.755 C 120.667 39.125,120.574 39.380,120.417 39.440 C 120.265 39.498,120.167 39.750,120.167 40.081 C 120.167 40.381,120.054 40.719,119.917 40.833 C 119.779 40.947,119.667 41.252,119.667 41.511 C 119.667 41.769,119.592 42.027,119.500 42.083 C 119.408 42.140,119.333 42.324,119.333 42.492 C 119.333 42.660,119.221 42.841,119.083 42.894 C 118.926 42.954,118.833 43.209,118.833 43.578 C 118.833 43.902,118.758 44.167,118.667 44.167 C 118.575 44.167,118.500 44.432,118.500 44.755 C 118.500 45.125,118.407 45.380,118.250 45.440 C 118.097 45.498,118.000 45.751,118.000 46.091 C 118.000 46.397,117.925 46.693,117.833 46.750 C 117.742 46.807,117.667 47.064,117.667 47.323 C 117.667 47.581,117.554 47.886,117.417 48.000 C 117.279 48.114,117.167 48.414,117.167 48.667 C 117.167 48.919,117.054 49.219,116.917 49.333 C 116.779 49.447,116.667 49.752,116.667 50.011 C 116.667 50.269,116.592 50.527,116.500 50.583 C 116.408 50.640,116.333 50.936,116.333 51.242 C 116.333 51.582,116.236 51.835,116.083 51.894 C 115.926 51.954,115.833 52.209,115.833 52.578 C 115.833 52.902,115.758 53.167,115.667 53.167 C 115.575 53.167,115.500 53.432,115.500 53.755 C 115.500 54.125,115.407 54.380,115.250 54.440 C 115.097 54.498,115.000 54.751,115.000 55.091 C 115.000 55.397,114.925 55.693,114.833 55.750 C 114.742 55.807,114.667 56.064,114.667 56.323 C 114.667 56.581,114.554 56.886,114.417 57.000 C 114.279 57.114,114.167 57.414,114.167 57.667 C 114.167 57.919,114.054 58.219,113.917 58.333 C 113.779 58.447,113.667 58.752,113.667 59.011 C 113.667 59.269,113.592 59.527,113.500 59.583 C 113.408 59.640,113.333 59.936,113.333 60.242 C 113.333 60.582,113.236 60.835,113.083 60.894 C 112.926 60.954,112.833 61.209,112.833 61.578 C 112.833 61.902,112.758 62.167,112.667 62.167 C 112.575 62.167,112.500 62.420,112.500 62.730 C 112.500 63.039,112.388 63.386,112.250 63.500 C 112.112 63.614,112.000 63.887,112.000 64.106 C 112.000 64.325,111.913 64.644,111.807 64.814 C 111.251 65.704,110.636 65.667,125.810 65.667 C 141.306 65.667,140.000 65.767,140.000 64.580 C 140.000 64.272,140.075 63.973,140.167 63.917 C 140.258 63.860,140.333 63.490,140.333 63.094 C 140.333 62.657,140.432 62.292,140.583 62.167 C 140.736 62.040,140.833 61.675,140.833 61.230 C 140.833 60.828,140.908 60.500,141.000 60.500 C 141.092 60.500,141.167 60.172,141.167 59.770 C 141.167 59.325,141.264 58.960,141.417 58.833 C 141.567 58.708,141.667 58.344,141.667 57.917 C 141.667 57.490,141.766 57.125,141.917 57.000 C 142.070 56.872,142.167 56.507,142.167 56.051 C 142.167 54.710,142.901 55.083,142.966 56.458 C 142.994 57.031,143.087 57.500,143.175 57.500 C 143.262 57.500,143.333 57.828,143.333 58.230 C 143.333 58.675,143.431 59.040,143.583 59.167 C 143.754 59.308,143.833 59.686,143.833 60.354 C 143.833 60.896,143.908 61.333,144.000 61.333 C 144.092 61.333,144.167 61.662,144.167 62.063 C 144.167 62.508,144.264 62.873,144.417 63.000 C 144.583 63.138,144.667 63.512,144.667 64.119 C 144.667 65.794,143.349 65.655,159.271 65.661 C 174.207 65.667,174.015 65.678,173.273 64.859 C 173.123 64.693,173.000 64.366,173.000 64.132 C 173.000 63.899,172.887 63.614,172.750 63.500 C 172.612 63.386,172.500 63.039,172.500 62.730 C 172.500 62.420,172.425 62.167,172.333 62.167 C 172.242 62.167,172.167 61.902,172.167 61.578 C 172.167 61.209,172.074 60.954,171.917 60.894 C 171.764 60.835,171.667 60.582,171.667 60.242 C 171.667 59.936,171.592 59.640,171.500 59.583 C 171.408 59.527,171.333 59.269,171.333 59.011 C 171.333 58.752,171.221 58.447,171.083 58.333 C 170.946 58.219,170.833 57.919,170.833 57.667 C 170.833 57.414,170.721 57.114,170.583 57.000 C 170.446 56.886,170.333 56.581,170.333 56.323 C 170.333 56.064,170.258 55.807,170.167 55.750 C 170.075 55.693,170.000 55.397,170.000 55.091 C 170.000 54.751,169.903 54.498,169.750 54.440 C 169.593 54.380,169.500 54.125,169.500 53.755 C 169.500 53.432,169.425 53.167,169.333 53.167 C 169.242 53.167,169.167 52.902,169.167 52.578 C 169.167 52.209,169.074 51.954,168.917 51.894 C 168.764 51.835,168.667 51.582,168.667 51.242 C 168.667 50.936,168.592 50.640,168.500 50.583 C 168.408 50.527,168.333 50.269,168.333 50.011 C 168.333 49.752,168.221 49.447,168.083 49.333 C 167.946 49.219,167.833 48.919,167.833 48.667 C 167.833 48.414,167.721 48.114,167.583 48.000 C 167.446 47.886,167.333 47.581,167.333 47.323 C 167.333 47.064,167.258 46.807,167.167 46.750 C 167.075 46.693,167.000 46.397,167.000 46.091 C 167.000 45.751,166.903 45.498,166.750 45.440 C 166.593 45.380,166.500 45.125,166.500 44.755 C 166.500 44.432,166.425 44.167,166.333 44.167 C 166.242 44.167,166.167 43.902,166.167 43.578 C 166.167 43.209,166.074 42.954,165.917 42.894 C 165.779 42.841,165.667 42.660,165.667 42.492 C 165.667 42.324,165.592 42.140,165.500 42.083 C 165.408 42.027,165.333 41.769,165.333 41.511 C 165.333 41.252,165.221 40.947,165.083 40.833 C 164.946 40.719,164.833 40.381,164.833 40.081 C 164.833 39.750,164.735 39.498,164.583 39.440 C 164.426 39.380,164.333 39.125,164.333 38.755 C 164.333 38.432,164.258 38.167,164.167 38.167 C 164.075 38.167,164.000 37.902,164.000 37.578 C 164.000 37.209,163.907 36.954,163.750 36.894 C 163.597 36.835,163.500 36.582,163.500 36.242 C 163.500 35.936,163.425 35.640,163.333 35.583 C 163.242 35.527,163.167 35.269,163.167 35.011 C 163.167 34.752,163.054 34.447,162.917 34.333 C 162.779 34.219,162.667 33.914,162.667 33.656 C 162.667 33.398,162.592 33.140,162.500 33.083 C 162.408 33.027,162.333 32.769,162.333 32.511 C 162.333 32.252,162.221 31.947,162.083 31.833 C 161.946 31.719,161.833 31.381,161.833 31.081 C 161.833 30.750,161.735 30.498,161.583 30.440 C 161.426 30.380,161.333 30.125,161.333 29.755 C 161.333 29.432,161.258 29.167,161.167 29.167 C 161.075 29.167,161.000 28.902,161.000 28.578 C 161.000 28.209,160.907 27.954,160.750 27.894 C 160.597 27.835,160.500 27.582,160.500 27.242 C 160.500 26.936,160.425 26.640,160.333 26.583 C 160.242 26.527,160.167 26.269,160.167 26.011 C 160.167 25.752,160.054 25.447,159.917 25.333 C 159.779 25.219,159.667 24.914,159.667 24.656 C 159.667 24.398,159.592 24.140,159.500 24.083 C 159.408 24.027,159.333 23.773,159.333 23.519 C 159.333 23.253,159.171 22.905,158.948 22.696 L 158.562 22.333 142.473 22.333 C 127.099 22.333,126.373 22.347,126.109 22.638 M195.744 22.542 C 195.700 22.656,195.684 32.387,195.707 44.167 L 195.750 65.583 212.250 65.583 L 228.750 65.583 228.793 57.458 L 228.837 49.333 232.148 49.333 C 234.888 49.333,235.495 49.376,235.667 49.583 C 235.824 49.773,236.250 49.833,237.427 49.833 C 238.283 49.833,239.027 49.908,239.083 50.000 C 239.140 50.092,239.510 50.167,239.906 50.167 C 240.343 50.167,240.708 50.265,240.833 50.417 C 240.947 50.554,241.182 50.667,241.354 50.667 C 241.526 50.667,241.667 50.742,241.667 50.833 C 241.667 50.925,241.807 51.000,241.980 51.000 C 242.152 51.000,242.386 51.112,242.500 51.250 C 242.614 51.387,242.817 51.500,242.950 51.500 C 243.264 51.500,244.167 52.402,244.167 52.717 C 244.167 52.850,244.279 53.053,244.417 53.167 C 244.554 53.281,244.667 53.515,244.667 53.687 C 244.667 53.859,244.742 54.000,244.833 54.000 C 244.925 54.000,245.000 54.141,245.000 54.313 C 245.000 54.485,245.112 54.719,245.250 54.833 C 245.453 55.002,245.500 55.536,245.500 57.667 C 245.500 59.797,245.453 60.332,245.250 60.500 C 245.112 60.614,245.000 60.848,245.000 61.020 C 245.000 61.193,244.925 61.333,244.833 61.333 C 244.742 61.333,244.667 61.474,244.667 61.646 C 244.667 61.818,244.554 62.053,244.417 62.167 C 244.279 62.281,244.167 62.515,244.167 62.687 C 244.167 62.877,244.049 63.000,243.867 63.000 C 243.702 63.000,243.275 63.300,242.917 63.667 C 242.470 64.124,242.122 64.333,241.809 64.333 C 241.558 64.333,241.307 64.408,241.250 64.500 C 241.193 64.592,240.936 64.667,240.677 64.667 C 240.067 64.667,239.708 65.064,240.000 65.417 C 240.376 65.869,271.824 65.786,272.213 65.331 C 272.371 65.147,272.500 64.894,272.500 64.769 C 272.500 64.643,272.612 64.447,272.750 64.333 C 272.887 64.219,273.000 63.919,273.000 63.667 C 273.000 63.414,273.112 63.114,273.250 63.000 C 273.387 62.886,273.500 62.581,273.500 62.323 C 273.500 62.064,273.575 61.807,273.667 61.750 C 273.758 61.693,273.833 61.136,273.833 60.511 C 273.833 59.704,273.906 59.314,274.083 59.167 C 274.294 58.992,274.333 58.279,274.333 54.667 C 274.333 51.054,274.294 50.341,274.083 50.167 C 273.905 50.019,273.833 49.628,273.833 48.813 C 273.833 48.160,273.762 47.667,273.667 47.667 C 273.575 47.667,273.500 47.338,273.500 46.937 C 273.500 46.492,273.403 46.127,273.250 46.000 C 273.099 45.875,273.000 45.510,273.000 45.083 C 273.000 44.656,272.901 44.292,272.750 44.167 C 272.606 44.048,272.495 43.666,272.488 43.271 C 272.481 42.893,272.332 42.358,272.156 42.083 C 271.981 41.808,271.790 41.471,271.731 41.333 C 271.673 41.196,271.508 40.802,271.364 40.458 C 271.220 40.115,271.042 39.833,270.968 39.833 C 270.894 39.833,270.833 39.579,270.833 39.268 C 270.833 38.919,270.738 38.666,270.583 38.606 C 270.446 38.554,270.333 38.363,270.333 38.182 C 270.333 38.001,270.258 37.807,270.167 37.750 C 270.075 37.693,269.998 37.520,269.995 37.365 C 269.992 37.210,269.692 36.785,269.328 36.421 C 268.964 36.057,268.667 35.664,268.667 35.548 C 268.667 35.432,268.367 35.055,268.000 34.710 C 267.634 34.365,267.334 33.965,267.334 33.821 C 267.333 33.676,267.146 33.382,266.917 33.167 C 266.688 32.951,266.500 32.638,266.500 32.471 C 266.500 32.291,266.379 32.167,266.204 32.167 C 266.042 32.167,265.312 31.567,264.583 30.833 C 263.854 30.100,263.141 29.500,262.998 29.500 C 262.855 29.500,262.368 29.125,261.917 28.667 C 261.465 28.208,260.962 27.833,260.798 27.833 C 260.634 27.833,260.500 27.758,260.500 27.667 C 260.500 27.575,260.359 27.500,260.187 27.500 C 260.015 27.500,259.781 27.387,259.667 27.250 C 259.553 27.113,259.326 27.000,259.164 27.000 C 259.002 27.000,258.826 26.887,258.773 26.750 C 258.720 26.613,258.561 26.500,258.420 26.500 C 258.278 26.500,258.032 26.430,257.873 26.345 C 257.714 26.261,257.471 26.147,257.333 26.094 C 257.196 26.040,256.858 25.853,256.583 25.677 C 256.308 25.501,255.961 25.352,255.812 25.346 C 255.663 25.339,255.447 25.221,255.333 25.083 C 255.219 24.946,254.914 24.833,254.656 24.833 C 254.398 24.833,254.140 24.758,254.083 24.667 C 254.027 24.575,253.769 24.500,253.511 24.500 C 253.252 24.500,252.947 24.387,252.833 24.250 C 252.708 24.099,252.344 24.000,251.917 24.000 C 251.490 24.000,251.125 23.901,251.000 23.750 C 250.873 23.597,250.508 23.500,250.063 23.500 C 249.662 23.500,249.333 23.425,249.333 23.333 C 249.333 23.242,249.080 23.167,248.770 23.167 C 248.461 23.167,248.114 23.054,248.000 22.917 C 247.840 22.724,247.398 22.667,246.073 22.667 C 245.106 22.667,244.308 22.594,244.250 22.500 C 244.084 22.232,195.846 22.273,195.744 22.542 M108.954 73.168 C 108.796 73.353,108.667 73.730,108.667 74.007 C 108.667 74.301,108.563 74.550,108.417 74.606 C 108.272 74.662,108.167 74.911,108.167 75.196 C 108.167 75.468,108.054 75.803,107.917 75.940 C 107.779 76.078,107.667 76.406,107.667 76.669 C 107.667 76.932,107.592 77.193,107.500 77.250 C 107.408 77.307,107.333 77.564,107.333 77.823 C 107.333 78.081,107.221 78.386,107.083 78.500 C 106.946 78.614,106.833 78.919,106.833 79.177 C 106.833 79.436,106.758 79.693,106.667 79.750 C 106.575 79.807,106.500 80.064,106.500 80.323 C 106.500 80.581,106.388 80.886,106.250 81.000 C 106.112 81.114,106.000 81.453,106.000 81.753 C 106.000 82.083,105.902 82.335,105.750 82.394 C 105.593 82.454,105.500 82.709,105.500 83.078 C 105.500 83.402,105.425 83.667,105.333 83.667 C 105.242 83.667,105.167 83.921,105.167 84.232 C 105.167 84.581,105.071 84.834,104.917 84.894 C 104.761 84.953,104.667 85.208,104.667 85.568 C 104.667 85.887,104.592 86.193,104.500 86.250 C 104.408 86.307,104.333 86.564,104.333 86.823 C 104.333 87.081,104.221 87.386,104.083 87.500 C 103.946 87.614,103.833 87.919,103.833 88.177 C 103.833 88.436,103.758 88.693,103.667 88.750 C 103.575 88.807,103.500 89.064,103.500 89.323 C 103.500 89.581,103.388 89.886,103.250 90.000 C 103.112 90.114,103.000 90.453,103.000 90.753 C 103.000 91.083,102.902 91.335,102.750 91.394 C 102.605 91.449,102.500 91.698,102.500 91.985 C 102.500 92.257,102.425 92.527,102.333 92.583 C 102.242 92.640,102.167 92.947,102.167 93.265 C 102.167 93.626,102.072 93.880,101.917 93.940 C 101.764 93.998,101.667 94.251,101.667 94.591 C 101.667 94.897,101.592 95.193,101.500 95.250 C 101.408 95.307,101.333 95.564,101.333 95.823 C 101.333 96.081,101.221 96.386,101.083 96.500 C 100.946 96.614,100.833 96.919,100.833 97.177 C 100.833 97.436,100.758 97.693,100.667 97.750 C 100.575 97.807,100.500 98.064,100.500 98.323 C 100.500 98.581,100.388 98.886,100.250 99.000 C 100.112 99.114,100.000 99.453,100.000 99.753 C 100.000 100.083,99.902 100.335,99.750 100.394 C 99.612 100.446,99.500 100.637,99.500 100.818 C 99.500 100.999,99.425 101.193,99.333 101.250 C 99.242 101.307,99.167 101.564,99.167 101.823 C 99.167 102.081,99.054 102.386,98.917 102.500 C 98.779 102.614,98.667 102.919,98.667 103.177 C 98.667 103.436,98.592 103.693,98.500 103.750 C 98.408 103.807,98.333 104.103,98.333 104.409 C 98.333 104.749,98.236 105.002,98.083 105.060 C 97.926 105.120,97.833 105.375,97.833 105.745 C 97.833 106.068,97.758 106.333,97.667 106.333 C 97.575 106.333,97.500 106.598,97.500 106.922 C 97.500 107.291,97.407 107.546,97.250 107.606 C 97.098 107.665,97.000 107.917,97.000 108.247 C 97.000 108.547,96.888 108.886,96.750 109.000 C 96.612 109.114,96.500 109.419,96.500 109.677 C 96.500 109.936,96.425 110.193,96.333 110.250 C 96.242 110.307,96.167 110.564,96.167 110.823 C 96.167 111.081,96.054 111.386,95.917 111.500 C 95.779 111.614,95.667 111.919,95.667 112.177 C 95.667 112.436,95.592 112.693,95.500 112.750 C 95.408 112.807,95.333 113.036,95.333 113.260 L 95.333 113.667 111.546 113.667 C 129.971 113.667,128.333 113.803,128.333 112.266 C 128.333 111.771,128.414 111.505,128.583 111.440 C 128.767 111.369,128.833 111.078,128.833 110.339 C 128.833 109.780,128.907 109.333,129.000 109.333 C 129.092 109.333,129.167 108.966,129.167 108.518 C 129.167 107.947,129.242 107.674,129.417 107.606 C 129.587 107.541,129.667 107.274,129.667 106.765 C 129.667 106.355,129.742 105.973,129.833 105.917 C 129.925 105.860,130.000 105.478,130.000 105.068 C 130.000 104.559,130.079 104.292,130.250 104.227 C 130.424 104.160,130.500 103.889,130.500 103.333 C 130.500 102.778,130.576 102.507,130.750 102.440 C 130.921 102.374,131.000 102.107,131.000 101.598 C 131.000 101.188,131.075 100.807,131.167 100.750 C 131.258 100.693,131.333 100.323,131.333 99.927 C 131.333 99.491,131.432 99.126,131.583 99.000 C 131.736 98.873,131.833 98.508,131.833 98.063 C 131.833 97.662,131.908 97.333,132.000 97.333 C 132.092 97.333,132.167 96.966,132.167 96.518 C 132.167 95.947,132.242 95.674,132.417 95.606 C 132.587 95.541,132.667 95.274,132.667 94.765 C 132.667 94.355,132.742 93.973,132.833 93.917 C 132.925 93.860,133.000 93.478,133.000 93.068 C 133.000 92.559,133.079 92.292,133.250 92.227 C 133.432 92.157,133.500 91.870,133.500 91.169 C 133.500 90.518,133.581 90.141,133.750 90.000 C 133.903 89.873,134.000 89.508,134.000 89.063 C 134.000 88.662,134.075 88.333,134.167 88.333 C 134.258 88.333,134.333 87.966,134.333 87.518 C 134.333 86.947,134.408 86.674,134.583 86.606 C 134.754 86.541,134.833 86.274,134.833 85.765 C 134.833 85.355,134.908 84.973,135.000 84.917 C 135.092 84.860,135.167 84.490,135.167 84.094 C 135.167 83.657,135.265 83.292,135.417 83.167 C 135.569 83.040,135.667 82.675,135.667 82.230 C 135.667 81.828,135.742 81.500,135.833 81.500 C 135.925 81.500,136.000 81.172,136.000 80.770 C 136.000 80.325,136.097 79.960,136.250 79.833 C 136.401 79.708,136.500 79.344,136.500 78.917 C 136.500 78.490,136.599 78.125,136.750 78.000 C 136.903 77.873,137.000 77.508,137.000 77.063 C 137.000 76.662,137.075 76.333,137.167 76.333 C 137.258 76.333,137.333 75.966,137.333 75.518 C 137.333 74.934,137.407 74.674,137.593 74.603 C 137.788 74.528,137.839 74.307,137.801 73.710 L 137.750 72.917 123.496 72.874 C 109.382 72.832,109.240 72.835,108.954 73.168 M146.944 72.944 C 146.769 73.120,146.815 74.469,147.000 74.583 C 147.092 74.640,147.167 75.085,147.167 75.573 C 147.167 76.157,147.252 76.530,147.417 76.667 C 147.568 76.792,147.667 77.157,147.667 77.594 C 147.667 77.990,147.742 78.360,147.833 78.417 C 147.925 78.473,148.000 78.919,148.000 79.406 C 148.000 79.991,148.085 80.363,148.250 80.500 C 148.401 80.625,148.500 80.990,148.500 81.417 C 148.500 81.844,148.599 82.208,148.750 82.333 C 148.920 82.475,149.000 82.853,149.000 83.520 C 149.000 84.062,149.074 84.500,149.167 84.500 C 149.258 84.500,149.333 84.828,149.333 85.230 C 149.333 85.675,149.431 86.040,149.583 86.167 C 149.754 86.308,149.833 86.686,149.833 87.354 C 149.833 87.896,149.908 88.333,150.000 88.333 C 150.092 88.333,150.167 88.662,150.167 89.063 C 150.167 89.508,150.264 89.873,150.417 90.000 C 150.587 90.141,150.667 90.520,150.667 91.187 C 150.667 91.729,150.741 92.167,150.833 92.167 C 150.925 92.167,151.000 92.495,151.000 92.896 C 151.000 93.341,151.097 93.707,151.250 93.833 C 151.419 93.974,151.500 94.351,151.500 95.003 C 151.500 95.704,151.568 95.990,151.750 96.060 C 151.921 96.126,152.000 96.393,152.000 96.902 C 152.000 97.312,152.075 97.693,152.167 97.750 C 152.258 97.807,152.333 98.301,152.333 98.848 C 152.333 99.579,152.400 99.869,152.583 99.940 C 152.752 100.005,152.833 100.270,152.833 100.758 C 152.833 101.155,152.908 101.527,153.000 101.583 C 153.092 101.640,153.167 102.134,153.167 102.682 C 153.167 103.413,153.233 103.703,153.417 103.773 C 153.586 103.838,153.667 104.103,153.667 104.591 C 153.667 104.989,153.742 105.360,153.833 105.417 C 153.925 105.473,154.000 105.957,154.000 106.492 C 154.000 107.203,154.067 107.490,154.250 107.560 C 154.420 107.625,154.500 107.892,154.500 108.391 C 154.500 108.841,154.597 109.206,154.750 109.333 C 154.920 109.475,155.000 109.853,155.000 110.520 C 155.000 111.062,155.074 111.500,155.167 111.500 C 155.258 111.500,155.333 111.824,155.333 112.221 C 155.333 112.759,155.431 113.034,155.719 113.304 L 156.105 113.667 172.886 113.667 L 189.667 113.667 189.667 113.260 C 189.667 113.036,189.592 112.807,189.500 112.750 C 189.408 112.693,189.333 112.436,189.333 112.177 C 189.333 111.919,189.221 111.614,189.083 111.500 C 188.946 111.386,188.833 111.081,188.833 110.823 C 188.833 110.564,188.758 110.307,188.667 110.250 C 188.575 110.193,188.500 109.936,188.500 109.677 C 188.500 109.419,188.387 109.114,188.250 109.000 C 188.112 108.886,188.000 108.547,188.000 108.247 C 188.000 107.917,187.902 107.665,187.750 107.606 C 187.593 107.546,187.500 107.291,187.500 106.922 C 187.500 106.598,187.425 106.333,187.333 106.333 C 187.242 106.333,187.167 106.068,187.167 105.745 C 187.167 105.375,187.074 105.120,186.917 105.060 C 186.764 105.002,186.667 104.749,186.667 104.409 C 186.667 104.103,186.592 103.807,186.500 103.750 C 186.408 103.693,186.333 103.436,186.333 103.177 C 186.333 102.919,186.221 102.614,186.083 102.500 C 185.946 102.386,185.833 102.081,185.833 101.823 C 185.833 101.564,185.758 101.307,185.667 101.250 C 185.575 101.193,185.500 101.011,185.500 100.844 C 185.500 100.677,185.387 100.447,185.250 100.333 C 185.112 100.219,185.000 99.919,185.000 99.667 C 185.000 99.414,184.887 99.114,184.750 99.000 C 184.612 98.886,184.500 98.581,184.500 98.323 C 184.500 98.064,184.425 97.807,184.333 97.750 C 184.242 97.693,184.167 97.436,184.167 97.177 C 184.167 96.919,184.054 96.614,183.917 96.500 C 183.779 96.386,183.667 96.039,183.667 95.730 C 183.667 95.420,183.592 95.167,183.500 95.167 C 183.408 95.167,183.333 94.912,183.333 94.601 C 183.333 94.252,183.238 93.999,183.083 93.940 C 182.928 93.880,182.833 93.626,182.833 93.265 C 182.833 92.947,182.758 92.640,182.667 92.583 C 182.575 92.527,182.500 92.257,182.500 91.985 C 182.500 91.698,182.395 91.449,182.250 91.394 C 182.098 91.335,182.000 91.083,182.000 90.753 C 182.000 90.453,181.887 90.114,181.750 90.000 C 181.612 89.886,181.500 89.581,181.500 89.323 C 181.500 89.064,181.425 88.807,181.333 88.750 C 181.242 88.693,181.167 88.436,181.167 88.177 C 181.167 87.919,181.054 87.614,180.917 87.500 C 180.779 87.386,180.667 87.081,180.667 86.823 C 180.667 86.564,180.592 86.307,180.500 86.250 C 180.408 86.193,180.333 85.887,180.333 85.568 C 180.333 85.208,180.239 84.953,180.083 84.894 C 179.930 84.835,179.833 84.582,179.833 84.242 C 179.833 83.936,179.758 83.640,179.667 83.583 C 179.575 83.527,179.500 83.257,179.500 82.985 C 179.500 82.698,179.395 82.449,179.250 82.394 C 179.098 82.335,179.000 82.083,179.000 81.753 C 179.000 81.453,178.887 81.114,178.750 81.000 C 178.612 80.886,178.500 80.581,178.500 80.323 C 178.500 80.064,178.425 79.807,178.333 79.750 C 178.242 79.693,178.167 79.436,178.167 79.177 C 178.167 78.919,178.054 78.614,177.917 78.500 C 177.779 78.386,177.667 78.081,177.667 77.823 C 177.667 77.564,177.592 77.307,177.500 77.250 C 177.408 77.193,177.333 76.887,177.333 76.568 C 177.333 76.208,177.239 75.953,177.083 75.894 C 176.929 75.834,176.833 75.581,176.833 75.232 C 176.833 74.921,176.758 74.667,176.667 74.667 C 176.575 74.667,176.500 74.433,176.500 74.148 C 176.500 73.839,176.349 73.471,176.125 73.235 L 175.750 72.839 161.403 72.836 C 153.512 72.835,147.006 72.883,146.944 72.944 M195.744 73.042 C 195.700 73.156,195.684 82.325,195.707 93.417 L 195.750 113.583 212.250 113.583 L 228.750 113.583 228.792 94.282 C 228.820 81.522,228.891 75.016,229.001 75.084 C 229.092 75.140,229.167 75.324,229.167 75.492 C 229.167 75.660,229.279 75.841,229.417 75.894 C 229.554 75.946,229.667 76.137,229.667 76.318 C 229.667 76.499,229.742 76.693,229.833 76.750 C 229.925 76.807,230.000 77.001,230.000 77.182 C 230.000 77.363,230.112 77.554,230.250 77.606 C 230.387 77.659,230.500 77.840,230.500 78.008 C 230.500 78.176,230.575 78.360,230.667 78.417 C 230.758 78.473,230.833 78.731,230.833 78.989 C 230.833 79.248,230.946 79.553,231.083 79.667 C 231.221 79.781,231.333 80.006,231.333 80.167 C 231.333 80.328,231.446 80.553,231.583 80.667 C 231.721 80.781,231.833 81.015,231.833 81.187 C 231.833 81.359,231.908 81.500,232.000 81.500 C 232.092 81.500,232.167 81.641,232.167 81.813 C 232.167 81.985,232.279 82.219,232.417 82.333 C 232.554 82.447,232.667 82.682,232.667 82.854 C 232.667 83.026,232.742 83.167,232.833 83.167 C 232.925 83.167,233.000 83.307,233.000 83.480 C 233.000 83.652,233.112 83.886,233.250 84.000 C 233.387 84.114,233.500 84.299,233.500 84.411 C 233.500 84.682,233.980 85.634,234.177 85.757 C 234.263 85.810,234.333 86.103,234.333 86.409 C 234.333 86.749,234.430 87.002,234.583 87.060 C 234.721 87.113,234.833 87.304,234.833 87.485 C 234.833 87.666,234.908 87.860,235.000 87.917 C 235.092 87.973,235.167 88.168,235.167 88.348 C 235.167 88.529,235.279 88.720,235.417 88.773 C 235.554 88.826,235.667 89.007,235.667 89.175 C 235.667 89.343,235.742 89.527,235.833 89.583 C 235.925 89.640,236.000 89.834,236.000 90.015 C 236.000 90.196,236.112 90.387,236.250 90.440 C 236.387 90.492,236.500 90.673,236.500 90.841 C 236.500 91.009,236.575 91.193,236.667 91.250 C 236.758 91.307,236.833 91.489,236.833 91.656 C 236.833 91.823,236.946 92.053,237.083 92.167 C 237.221 92.281,237.333 92.507,237.333 92.669 C 237.333 92.832,237.446 93.008,237.583 93.060 C 237.721 93.113,237.833 93.304,237.833 93.485 C 237.833 93.666,237.908 93.860,238.000 93.917 C 238.092 93.973,238.167 94.231,238.167 94.489 C 238.167 94.748,238.279 95.053,238.417 95.167 C 238.554 95.281,238.672 95.496,238.679 95.645 C 238.686 95.795,238.835 96.142,239.010 96.417 C 239.186 96.692,239.373 97.029,239.427 97.167 C 239.481 97.304,239.594 97.547,239.679 97.706 C 239.764 97.865,239.833 98.101,239.833 98.230 C 239.833 98.359,239.946 98.508,240.083 98.560 C 240.221 98.613,240.333 98.799,240.333 98.974 C 240.333 99.149,240.446 99.386,240.583 99.500 C 240.721 99.614,240.833 99.848,240.833 100.020 C 240.833 100.193,240.908 100.333,241.000 100.333 C 241.092 100.333,241.167 100.474,241.167 100.646 C 241.167 100.818,241.279 101.053,241.417 101.167 C 241.554 101.281,241.667 101.586,241.667 101.844 C 241.667 102.102,241.742 102.360,241.833 102.417 C 241.925 102.473,242.000 102.656,242.000 102.823 C 242.000 102.989,242.112 103.219,242.250 103.333 C 242.387 103.447,242.500 103.674,242.500 103.836 C 242.500 103.998,242.612 104.174,242.750 104.227 C 242.887 104.280,243.000 104.471,243.000 104.652 C 243.000 104.832,243.075 105.027,243.167 105.083 C 243.258 105.140,243.333 105.334,243.333 105.515 C 243.333 105.696,243.446 105.887,243.583 105.940 C 243.721 105.992,243.833 106.173,243.833 106.341 C 243.833 106.509,243.908 106.693,244.000 106.750 C 244.092 106.807,244.167 107.001,244.167 107.182 C 244.167 107.363,244.279 107.554,244.417 107.606 C 244.554 107.659,244.667 107.840,244.667 108.008 C 244.667 108.176,244.742 108.360,244.833 108.417 C 244.925 108.473,245.000 108.731,245.000 108.989 C 245.000 109.248,245.112 109.553,245.250 109.667 C 245.387 109.781,245.500 110.006,245.500 110.167 C 245.500 110.328,245.612 110.553,245.750 110.667 C 245.887 110.781,246.000 111.015,246.000 111.187 C 246.000 111.359,246.075 111.500,246.167 111.500 C 246.258 111.500,246.333 111.641,246.333 111.813 C 246.333 111.985,246.446 112.219,246.583 112.333 C 246.721 112.447,246.833 112.643,246.833 112.769 C 246.833 113.727,245.498 113.667,266.792 113.667 C 287.694 113.667,286.869 113.701,286.104 112.856 C 285.955 112.691,285.833 112.445,285.833 112.308 C 285.833 112.170,285.646 111.882,285.417 111.667 C 285.188 111.451,285.000 111.172,285.000 111.046 C 285.000 110.920,284.813 110.644,284.583 110.431 C 284.354 110.219,284.167 109.932,284.167 109.793 C 284.167 109.654,284.054 109.447,283.917 109.333 C 283.779 109.219,283.667 109.012,283.667 108.874 C 283.667 108.735,283.479 108.448,283.250 108.235 C 283.021 108.023,282.833 107.738,282.833 107.601 C 282.833 107.465,282.758 107.307,282.667 107.250 C 282.575 107.193,282.498 107.020,282.495 106.865 C 282.493 106.710,282.268 106.365,281.995 106.097 C 281.723 105.830,281.500 105.519,281.500 105.406 C 281.500 105.294,281.314 105.025,281.086 104.809 C 280.859 104.593,280.671 104.290,280.670 104.135 C 280.668 103.980,280.592 103.807,280.500 103.750 C 280.408 103.693,280.333 103.535,280.333 103.399 C 280.333 103.262,280.146 102.977,279.917 102.765 C 279.688 102.552,279.500 102.265,279.500 102.126 C 279.500 101.988,279.387 101.781,279.250 101.667 C 279.112 101.553,279.000 101.329,279.000 101.170 C 279.000 101.010,278.812 100.739,278.583 100.567 C 278.354 100.395,278.167 100.135,278.167 99.989 C 278.167 99.844,277.979 99.549,277.750 99.333 C 277.521 99.118,277.333 98.803,277.333 98.632 C 277.333 98.462,277.221 98.280,277.083 98.227 C 276.946 98.174,276.833 98.002,276.833 97.845 C 276.833 97.687,276.646 97.382,276.417 97.167 C 276.188 96.951,276.000 96.651,276.000 96.500 C 276.000 96.349,275.819 96.055,275.597 95.847 C 275.376 95.639,275.150 95.288,275.094 95.068 C 275.039 94.847,274.920 94.667,274.830 94.667 C 274.740 94.667,274.667 94.530,274.667 94.362 C 274.667 94.195,274.479 93.882,274.250 93.667 C 274.021 93.451,273.833 93.138,273.833 92.971 C 273.833 92.804,273.758 92.667,273.667 92.667 C 273.575 92.667,273.500 92.531,273.500 92.365 C 273.500 92.198,273.275 91.847,273.000 91.583 C 272.725 91.320,272.500 90.996,272.500 90.863 C 272.500 90.730,272.313 90.448,272.083 90.235 C 271.854 90.023,271.667 89.738,271.667 89.601 C 271.667 89.465,271.592 89.307,271.500 89.250 C 271.408 89.193,271.333 89.014,271.333 88.853 C 271.333 88.691,271.144 88.380,270.912 88.163 C 270.477 87.754,270.000 86.929,270.000 86.587 C 270.000 86.479,269.813 86.215,269.583 86.000 C 269.354 85.785,269.167 85.482,269.167 85.328 C 269.167 85.173,268.979 84.906,268.750 84.734 C 268.521 84.562,268.333 84.298,268.333 84.148 C 268.333 83.997,268.221 83.781,268.083 83.667 C 267.946 83.553,267.833 83.324,267.833 83.158 C 267.833 82.993,267.646 82.710,267.417 82.530 C 267.188 82.350,267.000 82.091,267.000 81.955 C 267.000 81.819,266.887 81.614,266.750 81.500 C 266.612 81.386,266.500 81.157,266.500 80.992 C 266.500 80.826,266.313 80.543,266.083 80.363 C 265.854 80.183,265.667 79.907,265.667 79.750 C 265.667 79.593,265.479 79.317,265.250 79.137 C 265.021 78.957,264.833 78.674,264.833 78.508 C 264.833 78.343,264.721 78.114,264.583 78.000 C 264.446 77.886,264.333 77.679,264.333 77.540 C 264.333 77.402,264.146 77.114,263.917 76.902 C 263.688 76.690,263.500 76.404,263.500 76.268 C 263.500 76.131,263.425 75.973,263.333 75.917 C 263.242 75.860,263.165 75.687,263.164 75.532 C 263.162 75.377,262.975 75.073,262.747 74.858 C 262.520 74.642,262.333 74.376,262.333 74.266 C 262.333 74.157,262.049 73.790,261.701 73.450 L 261.069 72.833 228.446 72.833 C 202.501 72.833,195.807 72.876,195.744 73.042" />
  </g>
</svg>