<svg version="1.0" xmlns="http://www.w3.org/2000/svg" width="1429.000000pt" height="1429.000000pt" viewBox="0 0 1429.000000 1429.000000" preserveAspectRatio="xMidYMid meet">
  <g transform="translate(0.000000,1429.000000) scale(0.100000,-0.100000)" fill="#013c98" stroke="none">
    <path d="M12855 9972 c-27 -19 -47 -65 -41 -96 11 -56 37 -79 98 -84 51 -4 56 -2 81 28 36 42 37 95 2 133 -22 23 -34 27 -78 27 -29 0 -57 -4 -62 -8z"/>
    <path d="M12851 9574 c-55 -46 -49 -127 13 -168 38 -24 77 -20 116 13 31 25 35 34 35 76 0 40 -5 51 -33 76 -42 38 -89 39 -131 3z"/>
    <path d="M1095 9569 c-13 -19 -5 -293 8 -301 21 -13 591 -10 605 4 8 8 12 57 12 154 0 120 -2 143 -16 148 -29 11 -602 7 -609 -5z"/>
    <path d="M7384 9568 c-15 -21 -1 -2477 15 -2578 12 -78 22 -115 65 -236 40 -110 173 -284 266 -347 85 -58 107 -70 163 -90 62 -21 64 -21 1120 -24 664 -2 1081 0 1120 6 173 28 231 44 345 97 188 88 306 201 364 351 l23 58 3 808 c1 457 -1 836 -7 870 -14 95 -44 161 -120 262 -47 63 -95 112 -146 152 -85 65 -202 128 -255 139 -19 4 -44 13 -55 20 -16 12 -202 14 -1075 14 -808 0 -1059 3 -1068 12 -9 9 -12 78 -12 249 0 207 -2 238 -16 243 -9 3 -174 6 -369 6 -271 0 -355 -3 -361 -12z m2646 -1161 c91 -45 137 -83 164 -134 45 -89 46 -92 46 -613 0 -517 -1 -524 -45 -597 -19 -33 -74 -77 -130 -106 -75 -38 -153 -41 -1042 -44 -775 -3 -863 -2 -877 13 -14 14 -16 93 -16 748 0 556 3 735 12 744 9 9 228 12 928 12 l915 -1 45 -22z"/>
    <path d="M11344 9567 c-2 -7 -3 -78 -2 -157 l3 -145 309 -3 c178 -1 314 2 319 7 11 11 13 283 3 300 -11 17 -625 16 -632 -2z"/>
    <path d="M12872 9192 c-27 -8 -62 -58 -62 -90 0 -23 25 -70 45 -84 5 -4 31 -8 57 -8 67 0 108 36 108 94 0 31 -6 48 -23 64 -24 23 -88 35 -125 24z"/>
    <path d="M1096 9061 c-9 -15 -7 -2754 2 -2763 5 -5 150 -7 323 -6 l314 3 0 1385 0 1385 -317 3 c-185 1 -319 -2 -322 -7z"/>
    <path d="M2226 9054 c-8 -21 -8 -2728 0 -2749 5 -13 46 -15 319 -15 252 0 315 3 324 14 8 10 11 295 11 1056 0 647 3 1047 9 1053 6 6 223 9 560 8 504 -1 555 -3 597 -19 86 -34 155 -105 202 -208 16 -36 17 -108 20 -958 2 -646 6 -924 14 -933 8 -10 74 -13 308 -13 262 0 299 2 304 16 3 9 6 485 6 1059 0 650 4 1046 10 1050 5 3 252 6 549 6 619 0 614 1 701 -78 51 -46 67 -69 105 -153 19 -44 20 -69 25 -970 l5 -925 305 0 305 0 0 1140 c0 1040 -1 1143 -17 1175 -9 19 -27 60 -41 90 -30 69 -102 165 -164 219 -54 48 -174 109 -230 118 -21 3 -50 12 -65 19 -23 12 -372 14 -2091 14 -1883 0 -2065 -1 -2071 -16z"/>
    <path d="M11345 9058 c-3 -7 -4 -632 -3 -1388 l3 -1375 309 -3 c170 -1 313 1 318 6 6 6 13 2320 8 2765 0 4 -142 7 -315 7 -243 0 -317 -3 -320 -12z"/>
    <path d="M12864 8798 c-22 -10 -54 -67 -54 -96 0 -10 14 -34 31 -55 26 -32 36 -37 72 -37 60 1 98 34 104 92 5 41 2 48 -28 76 -36 34 -82 41 -125 20z"/>
    <path d="M12890 8413 c-61 -11 -94 -79 -66 -138 20 -42 21 -42 84 -51 49 -6 52 -5 81 27 71 77 7 180 -99 162z"/>
    <path d="M12876 8020 c-34 -22 -66 -67 -66 -95 0 -11 11 -37 25 -58 24 -35 29 -37 79 -37 50 0 55 2 80 38 44 64 30 114 -44 152 -22 11 -41 20 -42 19 -2 0 -16 -9 -32 -19z"/>
    <path d="M12874 7631 c-24 -10 -50 -48 -59 -84 -9 -34 17 -80 59 -107 34 -20 37 -21 71 -4 53 25 78 61 72 105 -9 68 -84 115 -143 90z"/>
    <path d="M12864 7234 c-21 -5 -54 -61 -54 -92 0 -10 11 -34 25 -55 24 -35 29 -37 79 -37 48 0 57 3 80 31 55 65 20 148 -64 154 -25 2 -54 1 -66 -1z"/>
    <path d="M12884 6846 c-38 -17 -74 -61 -74 -91 0 -31 41 -88 71 -99 15 -5 39 -6 54 -2 38 10 85 62 85 94 0 36 -39 90 -74 102 -16 5 -29 10 -30 10 -1 -1 -15 -7 -32 -14z"/>
    <path d="M12829 6406 c-24 -49 -21 -79 11 -114 17 -18 32 -22 80 -22 53 0 60 3 79 29 27 37 27 91 0 125 -18 23 -27 26 -84 26 l-64 0 -22 -44z"/>
    <path d="M12851 6044 c-60 -50 -46 -135 27 -170 61 -28 129 12 139 82 5 36 1 45 -27 77 -41 47 -92 51 -139 11z"/>
    <path d="M1095 5662 c-12 -9 -34 -52 -36 -72 -7 -69 28 -110 95 -110 64 0 106 37 106 92 0 24 -8 51 -21 69 -18 26 -26 29 -77 29 -31 0 -62 -4 -67 -8z"/>
    <path d="M1476 5651 c-21 -23 -26 -122 -7 -145 31 -37 131 -31 157 10 25 37 22 100 -6 129 -31 33 -117 36 -144 6z"/>
    <path d="M1874 5656 c-15 -12 -19 -27 -19 -80 0 -36 5 -70 11 -76 15 -15 77 -24 109 -16 64 16 87 97 44 157 -18 26 -26 29 -73 29 -29 0 -61 -6 -72 -14z"/>
    <path d="M2257 5645 c-9 -13 -18 -45 -19 -71 -2 -40 2 -50 26 -71 25 -21 36 -24 80 -19 40 4 55 10 73 33 33 41 30 82 -10 121 -28 27 -40 32 -82 32 -41 -1 -53 -5 -68 -25z"/>
    <path d="M2657 5652 c-32 -36 -41 -79 -23 -117 20 -42 42 -55 96 -55 59 0 90 33 90 98 0 66 -27 92 -97 92 -35 0 -55 -5 -66 -18z"/>
    <path d="M3036 5638 c-29 -36 -30 -39 -16 -90 14 -48 43 -68 100 -68 51 0 59 4 83 42 24 39 21 81 -9 117 -23 27 -32 31 -78 31 -47 0 -56 -3 -80 -32z"/>
    <path d="M3436 5639 c-19 -22 -25 -38 -22 -62 3 -18 5 -40 5 -49 1 -29 56 -51 112 -43 55 8 66 18 70 60 7 95 -15 125 -90 125 -43 0 -53 -4 -75 -31z"/>
    <path d="M3832 5645 c-38 -32 -47 -67 -27 -105 20 -40 51 -57 101 -59 62 -1 94 28 94 86 0 29 -7 55 -21 74 -18 25 -27 29 -69 29 -37 0 -55 -6 -78 -25z"/>
    <path d="M4223 5648 c-35 -37 -32 -110 5 -145 24 -22 33 -25 81 -20 30 3 58 12 63 19 10 15 6 143 -5 154 -4 4 -33 10 -65 12 -50 3 -60 1 -79 -20z"/>
    <path d="M4624 5662 c-32 -21 -44 -98 -23 -146 19 -40 109 -49 153 -15 22 17 26 28 26 72 0 67 -30 97 -99 97 -25 0 -51 -4 -57 -8z"/>
    <path d="M5014 5662 c-21 -14 -34 -51 -34 -96 0 -37 5 -48 28 -66 22 -18 35 -21 77 -16 94 11 121 90 56 169 -10 12 -29 17 -65 17 -28 0 -56 -4 -62 -8z"/>
    <path d="M5400 5650 c-11 -11 -20 -29 -20 -39 0 -11 -4 -22 -9 -25 -16 -10 21 -87 47 -97 100 -38 192 57 135 141 -24 36 -33 40 -85 40 -35 0 -54 -6 -68 -20z"/>
    <path d="M5782 5647 c-32 -34 -30 -103 3 -140 46 -48 143 -34 171 27 20 41 14 71 -21 109 -22 23 -34 27 -79 27 -42 0 -57 -5 -74 -23z"/>
    <path d="M6183 5648 c-28 -31 -34 -75 -16 -120 13 -33 20 -38 58 -44 87 -13 130 24 121 106 -5 58 -32 80 -95 80 -37 0 -52 -5 -68 -22z"/>
    <path d="M6569 5641 c-37 -38 -38 -82 -3 -128 22 -29 31 -33 70 -33 56 0 79 12 99 50 22 42 19 74 -11 109 -22 27 -32 31 -76 31 -41 0 -54 -5 -79 -29z"/>
    <path d="M6962 5647 c-33 -35 -31 -110 4 -142 27 -25 72 -32 120 -19 45 12 60 111 23 158 -17 22 -28 26 -73 26 -42 0 -57 -5 -74 -23z"/>
    <path d="M7357 5640 c-38 -45 -41 -65 -16 -109 23 -42 41 -51 102 -51 78 0 112 82 66 156 -19 32 -24 34 -74 34 -47 0 -56 -4 -78 -30z"/>
    <path d="M7751 5646 c-14 -15 -25 -42 -28 -69 -5 -40 -2 -46 28 -71 29 -25 39 -28 82 -23 27 2 55 11 64 20 21 21 20 109 -1 142 -14 21 -24 25 -69 25 -44 0 -58 -4 -76 -24z"/>
    <path d="M8144 5656 c-15 -12 -19 -27 -19 -80 0 -36 5 -70 11 -76 6 -6 36 -14 66 -17 50 -5 57 -3 81 21 21 21 27 36 27 72 0 64 -31 94 -98 94 -26 0 -57 -6 -68 -14z"/>
    <path d="M8521 5636 c-28 -45 -27 -88 5 -125 21 -25 34 -31 64 -31 56 0 83 14 104 52 22 41 17 72 -19 111 -22 23 -34 27 -80 27 -50 0 -55 -2 -74 -34z"/>
    <path d="M8924 5649 c-28 -31 -27 -124 2 -148 32 -26 105 -26 137 -1 23 18 27 29 27 74 0 71 -25 96 -97 96 -38 0 -54 -5 -69 -21z"/>
    <path d="M9311 5643 c-32 -40 -35 -66 -12 -112 24 -46 49 -57 114 -48 51 7 76 37 77 92 0 63 -35 95 -105 95 -46 0 -56 -4 -74 -27z"/>
    <path d="M9718 5656 c-45 -33 -49 -107 -9 -147 31 -31 76 -38 124 -20 50 19 60 118 16 162 -22 22 -104 26 -131 5z"/>
    <path d="M10092 5633 c-38 -44 -39 -53 -10 -104 18 -33 28 -39 65 -45 23 -3 54 -3 68 0 55 14 75 100 35 156 -19 27 -27 30 -74 30 -48 0 -55 -3 -84 -37z"/>
    <path d="M10492 5647 c-17 -18 -22 -36 -22 -74 0 -44 4 -55 26 -72 35 -27 103 -28 135 -2 20 16 24 29 24 74 0 75 -20 97 -90 97 -41 0 -56 -5 -73 -23z"/>
    <path d="M10899 5657 c-77 -59 -34 -177 63 -177 64 0 88 26 88 94 0 69 -26 96 -91 96 -24 0 -51 -6 -60 -13z"/>
    <path d="M11277 5642 c-37 -38 -38 -102 -2 -137 19 -20 34 -25 74 -25 42 0 55 5 76 28 22 23 26 34 22 69 -3 24 -12 54 -21 68 -14 21 -24 25 -69 25 -45 0 -57 -4 -80 -28z"/>
    <path d="M11666 5648 c-10 -14 -16 -44 -16 -80 0 -68 20 -88 88 -88 34 0 49 6 71 28 26 25 27 31 21 81 -8 66 -26 81 -96 81 -43 0 -56 -4 -68 -22z"/>
    <path d="M12050 5638 c-41 -67 -14 -144 52 -154 55 -9 98 7 121 47 24 41 19 72 -18 112 -22 23 -34 27 -81 27 -51 0 -56 -2 -74 -32z"/>
    <path d="M12452 5647 c-17 -18 -22 -35 -22 -73 1 -72 17 -88 91 -89 52 0 63 3 80 24 28 35 26 101 -6 135 -33 36 -111 38 -143 3z"/>
    <path d="M12835 5633 c-29 -44 -31 -60 -9 -107 18 -37 37 -46 97 -46 86 0 130 104 69 163 -23 22 -37 27 -80 27 -48 0 -53 -2 -77 -37z"/>
    <path d="M13230 5643 c-18 -23 -21 -37 -17 -76 2 -27 10 -55 18 -62 18 -18 72 -27 115 -19 28 5 38 14 53 47 21 45 15 71 -23 115 -15 17 -30 22 -72 22 -45 0 -56 -4 -74 -27z"/>
    <path d="M12875 5270 c-31 -9 -65 -54 -65 -85 0 -9 10 -34 23 -55 16 -30 30 -41 54 -46 73 -14 124 22 130 90 7 74 -61 120 -142 96z"/>
  </g>
</svg>
