<svg width="874" height="690" viewBox="0 0 874 690" fill="none" xmlns="http://www.w3.org/2000/svg">
    <path d="M415 40.5L599.5 255L10.5 189.5L415 40.5Z" fill="#1362E2"/>
    <path d="M155.5 205.5L267 218L106.5 236L155.5 205.5Z" fill="#C4C4C4"/>
    <path d="M493 31L599.5 255L435 64L493 31Z" fill="#C4C4C4"/>
    <path d="M689 137.5L738.5 304L599.5 255L689 137.5Z" fill="#C4C4C4"/>
    <path d="M689 137.5L776.5 191L738.5 304L689 137.5Z" fill="#1362E2"/>
    <path d="M754.5 92L798 142L776.5 191L689 137.5L754.5 92Z" fill="#050038"/>
    <path d="M813 96L855 147.5L798.5 140L813 96Z" fill="#C4C4C4"/>
    <path d="M599.5 255L738.5 304L316 624L599.5 255Z" fill="#1362E2"/>
    <path d="M599.5 255L475.5 416.5L267 218L599.5 255Z" fill="#C4C4C4"/>
    <path d="M738.5 304L703.5 453L316 624L738.5 304Z" fill="#050038"/>
    <path d="M475.5 416.5L369.5 554.5L76.5 619.5L475.5 416.5Z" fill="#C4C4C4"/>
    <path d="M370 554.5L316 624L76.5 619.5L370 554.5Z" fill="#050038"/>
    <path d="M563 515L590.5 561.5L515.5 536L563 515Z" fill="#C4C4C4"/>
    <path d="M236 622.5L316 624L197 684L236 622.5Z" fill="#C4C4C4"/>
    <path d="M813 96L798 142L754.5 92L813 96Z" fill="#050038"/>
</svg>
