<svg width="647" height="200" viewBox="0 0 647 200" fill="none" 
  xmlns="http://www.w3.org/2000/svg">
  <rect width="650" height="200" fill="#050038"/>
  <path d="M21.8828 109.719L65.8984 127.508V141.289L8.38281 114.641V104.375L65.8984 77.7969V91.5781L21.8828 109.719ZM627.344 109.297L580.867 91.0859V77.7266L640.914 104.305V114.57L580.867 141.219V127.719L627.344 109.297Z" fill="#1362E2"/>
  <path d="M79.3984 52.625H91.7734L134.523 163.789H122.148L79.3984 52.625Z" fill="#F24D00"/>
  <path d="M167.725 132.711L193.741 52.625H213.287L176.444 155H159.217L122.514 52.625H141.991L167.725 132.711ZM248.613 155H231.527V78.9219H248.613V155ZM230.472 59.1641C230.472 56.5391 231.292 54.3594 232.933 52.625C234.62 50.8906 237.011 50.0234 240.105 50.0234C243.198 50.0234 245.589 50.8906 247.277 52.625C248.964 54.3594 249.808 56.5391 249.808 59.1641C249.808 61.7422 248.964 63.8984 247.277 65.6328C245.589 67.3203 243.198 68.1641 240.105 68.1641C237.011 68.1641 234.62 67.3203 232.933 65.6328C231.292 63.8984 230.472 61.7422 230.472 59.1641ZM295.891 60.4297V78.9219H309.32V91.5781H295.891V134.047C295.891 136.953 296.453 139.062 297.578 140.375C298.75 141.641 300.812 142.273 303.766 142.273C305.734 142.273 307.727 142.039 309.742 141.57V154.789C305.852 155.867 302.102 156.406 298.492 156.406C285.367 156.406 278.805 149.164 278.805 134.68V91.5781H266.289V78.9219H278.805V60.4297H295.891ZM375.091 155C374.341 153.547 373.684 151.18 373.122 147.898C367.684 153.57 361.028 156.406 353.153 156.406C345.513 156.406 339.278 154.227 334.45 149.867C329.622 145.508 327.208 140.117 327.208 133.695C327.208 125.586 330.208 119.375 336.208 115.062C342.255 110.703 350.88 108.523 362.083 108.523H372.559V103.531C372.559 99.5938 371.458 96.4531 369.255 94.1094C367.052 91.7188 363.7 90.5234 359.2 90.5234C355.309 90.5234 352.122 91.5078 349.638 93.4766C347.153 95.3984 345.911 97.8594 345.911 100.859H328.825C328.825 96.6875 330.208 92.7969 332.973 89.1875C335.739 85.5312 339.489 82.6719 344.223 80.6094C349.005 78.5469 354.325 77.5156 360.184 77.5156C369.091 77.5156 376.192 79.7656 381.489 84.2656C386.786 88.7188 389.505 95 389.645 103.109V137.422C389.645 144.266 390.606 149.727 392.528 153.805V155H375.091ZM356.317 142.695C359.692 142.695 362.856 141.875 365.809 140.234C368.809 138.594 371.059 136.391 372.559 133.625V119.281H363.348C357.02 119.281 352.263 120.383 349.075 122.586C345.888 124.789 344.294 127.906 344.294 131.938C344.294 135.219 345.372 137.844 347.528 139.812C349.731 141.734 352.661 142.695 356.317 142.695ZM432.916 155H415.83V47H432.916V155ZM476.959 155H459.873V78.9219H476.959V155ZM458.819 59.1641C458.819 56.5391 459.639 54.3594 461.28 52.625C462.967 50.8906 465.358 50.0234 468.452 50.0234C471.545 50.0234 473.936 50.8906 475.623 52.625C477.311 54.3594 478.155 56.5391 478.155 59.1641C478.155 61.7422 477.311 63.8984 475.623 65.6328C473.936 67.3203 471.545 68.1641 468.452 68.1641C465.358 68.1641 462.967 67.3203 461.28 65.6328C459.639 63.8984 458.819 61.7422 458.819 59.1641ZM529.441 130.531L544.909 78.9219H563.12L532.886 166.531C528.245 179.328 520.37 185.727 509.261 185.727C506.777 185.727 504.034 185.305 501.034 184.461V171.242L504.269 171.453C508.581 171.453 511.816 170.656 513.972 169.062C516.175 167.516 517.909 164.891 519.175 161.188L521.636 154.648L494.917 78.9219H513.339L529.441 130.531Z" fill="white"/>
</svg>
