<svg width="633" height="139" viewBox="0 0 633 139" fill="none" 
  xmlns="http://www.w3.org/2000/svg">
  <path d="M13.8828 62.7188L57.8984 80.5078V94.2891L0.382812 67.6406V57.375L57.8984 30.7969V44.5781L13.8828 62.7188ZM619.344 62.2969L572.867 44.0859V30.7266L632.914 57.3047V67.5703L572.867 94.2188V80.7188L619.344 62.2969Z" fill="#1362E2"/>
  <path d="M71.3984 5.625H83.7734L126.523 116.789H114.148L71.3984 5.625Z" fill="#F24D00"/>
  <path d="M159.725 85.7109L185.741 5.625H205.287L168.444 108H151.217L114.514 5.625H133.991L159.725 85.7109ZM240.613 108H223.527V31.9219H240.613V108ZM222.472 12.1641C222.472 9.53906 223.292 7.35938 224.933 5.625C226.62 3.89062 229.011 3.02344 232.105 3.02344C235.198 3.02344 237.589 3.89062 239.277 5.625C240.964 7.35938 241.808 9.53906 241.808 12.1641C241.808 14.7422 240.964 16.8984 239.277 18.6328C237.589 20.3203 235.198 21.1641 232.105 21.1641C229.011 21.1641 226.62 20.3203 224.933 18.6328C223.292 16.8984 222.472 14.7422 222.472 12.1641ZM287.891 13.4297V31.9219H301.32V44.5781H287.891V87.0469C287.891 89.9531 288.453 92.0625 289.578 93.375C290.75 94.6406 292.812 95.2734 295.766 95.2734C297.734 95.2734 299.727 95.0391 301.742 94.5703V107.789C297.852 108.867 294.102 109.406 290.492 109.406C277.367 109.406 270.805 102.164 270.805 87.6797V44.5781H258.289V31.9219H270.805V13.4297H287.891ZM367.091 108C366.341 106.547 365.684 104.18 365.122 100.898C359.684 106.57 353.028 109.406 345.153 109.406C337.513 109.406 331.278 107.227 326.45 102.867C321.622 98.5078 319.208 93.1172 319.208 86.6953C319.208 78.5859 322.208 72.375 328.208 68.0625C334.255 63.7031 342.88 61.5234 354.083 61.5234H364.559V56.5312C364.559 52.5938 363.458 49.4531 361.255 47.1094C359.052 44.7188 355.7 43.5234 351.2 43.5234C347.309 43.5234 344.122 44.5078 341.638 46.4766C339.153 48.3984 337.911 50.8594 337.911 53.8594H320.825C320.825 49.6875 322.208 45.7969 324.973 42.1875C327.739 38.5312 331.489 35.6719 336.223 33.6094C341.005 31.5469 346.325 30.5156 352.184 30.5156C361.091 30.5156 368.192 32.7656 373.489 37.2656C378.786 41.7188 381.505 48 381.645 56.1094V90.4219C381.645 97.2656 382.606 102.727 384.528 106.805V108H367.091ZM348.317 95.6953C351.692 95.6953 354.856 94.875 357.809 93.2344C360.809 91.5938 363.059 89.3906 364.559 86.625V72.2812H355.348C349.02 72.2812 344.263 73.3828 341.075 75.5859C337.888 77.7891 336.294 80.9062 336.294 84.9375C336.294 88.2188 337.372 90.8438 339.528 92.8125C341.731 94.7344 344.661 95.6953 348.317 95.6953ZM424.916 108H407.83V0H424.916V108ZM468.959 108H451.873V31.9219H468.959V108ZM450.819 12.1641C450.819 9.53906 451.639 7.35938 453.28 5.625C454.967 3.89062 457.358 3.02344 460.452 3.02344C463.545 3.02344 465.936 3.89062 467.623 5.625C469.311 7.35938 470.155 9.53906 470.155 12.1641C470.155 14.7422 469.311 16.8984 467.623 18.6328C465.936 20.3203 463.545 21.1641 460.452 21.1641C457.358 21.1641 454.967 20.3203 453.28 18.6328C451.639 16.8984 450.819 14.7422 450.819 12.1641ZM521.441 83.5312L536.909 31.9219H555.12L524.886 119.531C520.245 132.328 512.37 138.727 501.261 138.727C498.777 138.727 496.034 138.305 493.034 137.461V124.242L496.269 124.453C500.581 124.453 503.816 123.656 505.972 122.062C508.175 120.516 509.909 117.891 511.175 114.188L513.636 107.648L486.917 31.9219H505.339L521.441 83.5312Z" fill="#050038"/>
</svg>
